<svg width="1608" height="208" viewBox="0 0 1608 208" fill="none" xmlns="http://www.w3.org/2000/svg">
<rect x="2" y="2" width="1604" height="104" fill="white"/>
<rect width="557" height="100" transform="translate(4 4)" fill="#30BCED"/>
<path d="M39.9031 69V43.56H61.0231V69H56.7991V47.304H44.1271V69H39.9031ZM78.7644 69.48C77.1324 69.48 75.5804 69.224 74.1084 68.712C72.6364 68.2 71.3404 67.416 70.2204 66.36C69.1004 65.272 68.2044 63.912 67.5324 62.28C66.8604 60.648 66.5244 58.728 66.5244 56.52V55.56C66.5244 53.448 66.8444 51.624 67.4844 50.088C68.1244 48.52 68.9724 47.224 70.0284 46.2C71.1164 45.144 72.3644 44.36 73.7724 43.848C75.2124 43.336 76.7164 43.08 78.2844 43.08C82.0284 43.08 84.9244 44.104 86.9724 46.152C89.0204 48.2 90.0444 51.096 90.0444 54.84V57.528H70.7484C70.7484 59 70.9884 60.264 71.4684 61.32C71.9484 62.344 72.5724 63.176 73.3404 63.816C74.1084 64.456 74.9564 64.92 75.8844 65.208C76.8444 65.496 77.8044 65.64 78.7644 65.64C80.6844 65.64 82.1564 65.32 83.1804 64.68C84.2364 64.04 84.9884 63.16 85.4364 62.04H89.5644C89.3084 63.256 88.8444 64.328 88.1724 65.256C87.5324 66.184 86.7324 66.968 85.7724 67.608C84.8444 68.216 83.7724 68.68 82.5564 69C81.3724 69.32 80.1084 69.48 78.7644 69.48ZM70.7484 54.072H86.0604C86.0284 52.76 85.8044 51.656 85.3884 50.76C85.0044 49.832 84.4764 49.096 83.8044 48.552C83.1324 47.976 82.3324 47.56 81.4044 47.304C80.5084 47.048 79.5484 46.92 78.5244 46.92C77.5324 46.92 76.5724 47.064 75.6444 47.352C74.7164 47.608 73.8844 48.04 73.1484 48.648C72.4444 49.224 71.8684 49.96 71.4204 50.856C70.9724 51.752 70.7484 52.824 70.7484 54.072ZM95.5681 78.6V43.56H99.5041V48.36C99.9521 47.496 100.48 46.744 101.088 46.104C101.696 45.432 102.384 44.872 103.152 44.424C103.92 43.976 104.752 43.64 105.648 43.416C106.544 43.192 107.504 43.08 108.528 43.08C110.128 43.08 111.568 43.352 112.848 43.896C114.16 44.408 115.28 45.192 116.208 46.248C117.136 47.272 117.84 48.568 118.32 50.136C118.832 51.672 119.088 53.48 119.088 55.56V56.52C119.088 58.664 118.832 60.552 118.32 62.184C117.808 63.816 117.088 65.176 116.16 66.264C115.232 67.32 114.112 68.12 112.8 68.664C111.52 69.208 110.096 69.48 108.528 69.48C106.352 69.48 104.528 69 103.056 68.04C101.616 67.08 100.528 65.88 99.7921 64.44V78.6H95.5681ZM107.568 65.736C108.592 65.736 109.552 65.544 110.448 65.16C111.344 64.744 112.112 64.152 112.752 63.384C113.424 62.616 113.936 61.656 114.288 60.504C114.672 59.352 114.864 58.024 114.864 56.52V55.56C114.864 54.152 114.672 52.92 114.288 51.864C113.936 50.776 113.424 49.864 112.752 49.128C112.112 48.36 111.344 47.784 110.448 47.4C109.552 47.016 108.592 46.824 107.568 46.824C106.416 46.824 105.36 47.016 104.4 47.4C103.44 47.752 102.624 48.264 101.952 48.936C101.28 49.576 100.752 50.344 100.368 51.24C99.9841 52.136 99.7921 53.096 99.7921 54.12V57.96C99.7921 59.112 99.9841 60.168 100.368 61.128C100.752 62.088 101.28 62.904 101.952 63.576C102.624 64.248 103.44 64.776 104.4 65.16C105.36 65.544 106.416 65.736 107.568 65.736ZM135.179 69.48C133.547 69.48 131.995 69.224 130.523 68.712C129.051 68.2 127.755 67.416 126.635 66.36C125.515 65.272 124.619 63.912 123.947 62.28C123.275 60.648 122.939 58.728 122.939 56.52V55.56C122.939 53.448 123.259 51.624 123.899 50.088C124.539 48.52 125.387 47.224 126.443 46.2C127.531 45.144 128.779 44.36 130.187 43.848C131.627 43.336 133.131 43.08 134.699 43.08C138.443 43.08 141.339 44.104 143.387 46.152C145.435 48.2 146.459 51.096 146.459 54.84V57.528H127.163C127.163 59 127.403 60.264 127.883 61.32C128.363 62.344 128.987 63.176 129.755 63.816C130.523 64.456 131.371 64.92 132.299 65.208C133.259 65.496 134.219 65.64 135.179 65.64C137.099 65.64 138.571 65.32 139.595 64.68C140.651 64.04 141.403 63.16 141.851 62.04H145.979C145.723 63.256 145.259 64.328 144.587 65.256C143.947 66.184 143.147 66.968 142.187 67.608C141.259 68.216 140.187 68.68 138.971 69C137.787 69.32 136.523 69.48 135.179 69.48ZM127.163 54.072H142.475C142.443 52.76 142.219 51.656 141.803 50.76C141.419 49.832 140.891 49.096 140.219 48.552C139.547 47.976 138.747 47.56 137.819 47.304C136.923 47.048 135.963 46.92 134.939 46.92C133.947 46.92 132.987 47.064 132.059 47.352C131.131 47.608 130.299 48.04 129.563 48.648C128.859 49.224 128.283 49.96 127.835 50.856C127.387 51.752 127.163 52.824 127.163 54.072ZM163.791 78.6V69.48C161.583 69.48 159.631 69.192 157.935 68.616C156.271 68.04 154.863 67.208 153.711 66.12C152.591 65.032 151.743 63.688 151.167 62.088C150.591 60.456 150.303 58.616 150.303 56.568V55.608C150.303 53.624 150.591 51.864 151.167 50.328C151.743 48.792 152.591 47.48 153.711 46.392C154.863 45.304 156.271 44.488 157.935 43.944C159.631 43.368 161.583 43.08 163.791 43.08V35.4H168.015V43.08C170.223 43.08 172.159 43.368 173.823 43.944C175.519 44.488 176.927 45.304 178.047 46.392C179.199 47.48 180.063 48.792 180.639 50.328C181.215 51.864 181.503 53.624 181.503 55.608V56.568C181.503 58.616 181.215 60.456 180.639 62.088C180.063 63.688 179.199 65.032 178.047 66.12C176.927 67.208 175.519 68.04 173.823 68.616C172.159 69.192 170.223 69.48 168.015 69.48V78.6H163.791ZM167.967 65.64C171.167 65.64 173.503 64.904 174.975 63.432C176.447 61.96 177.183 59.672 177.183 56.568V55.608C177.183 52.696 176.447 50.52 174.975 49.08C173.503 47.64 171.167 46.92 167.967 46.92V65.64ZM163.839 65.64V46.92C160.639 46.92 158.303 47.64 156.831 49.08C155.359 50.52 154.623 52.696 154.623 55.608V56.568C154.623 59.672 155.359 61.96 156.831 63.432C158.303 64.904 160.639 65.64 163.839 65.64ZM187.034 78.6V43.56H190.97V48.36C191.418 47.496 191.946 46.744 192.554 46.104C193.162 45.432 193.85 44.872 194.618 44.424C195.386 43.976 196.218 43.64 197.114 43.416C198.01 43.192 198.97 43.08 199.994 43.08C201.594 43.08 203.034 43.352 204.314 43.896C205.626 44.408 206.746 45.192 207.674 46.248C208.602 47.272 209.306 48.568 209.786 50.136C210.298 51.672 210.554 53.48 210.554 55.56V56.52C210.554 58.664 210.298 60.552 209.786 62.184C209.274 63.816 208.554 65.176 207.626 66.264C206.698 67.32 205.578 68.12 204.266 68.664C202.986 69.208 201.562 69.48 199.994 69.48C197.818 69.48 195.994 69 194.522 68.04C193.082 67.08 191.994 65.88 191.258 64.44V78.6H187.034ZM199.034 65.736C200.058 65.736 201.018 65.544 201.914 65.16C202.81 64.744 203.578 64.152 204.218 63.384C204.89 62.616 205.402 61.656 205.754 60.504C206.138 59.352 206.33 58.024 206.33 56.52V55.56C206.33 54.152 206.138 52.92 205.754 51.864C205.402 50.776 204.89 49.864 204.218 49.128C203.578 48.36 202.81 47.784 201.914 47.4C201.018 47.016 200.058 46.824 199.034 46.824C197.882 46.824 196.826 47.016 195.866 47.4C194.906 47.752 194.09 48.264 193.418 48.936C192.746 49.576 192.218 50.344 191.834 51.24C191.45 52.136 191.258 53.096 191.258 54.12V57.96C191.258 59.112 191.45 60.168 191.834 61.128C192.218 62.088 192.746 62.904 193.418 63.576C194.09 64.248 194.906 64.776 195.866 65.16C196.826 65.544 197.882 65.736 199.034 65.736ZM223.334 69.48C221.958 69.48 220.726 69.288 219.638 68.904C218.55 68.488 217.638 67.928 216.902 67.224C216.166 66.52 215.606 65.688 215.222 64.728C214.838 63.768 214.646 62.712 214.646 61.56C214.646 60.312 214.838 59.24 215.222 58.344C215.606 57.416 216.15 56.664 216.854 56.088C217.59 55.512 218.502 55.096 219.59 54.84C220.678 54.552 221.91 54.408 223.286 54.408H231.542V52.68C231.542 51.592 231.414 50.68 231.158 49.944C230.934 49.208 230.566 48.616 230.054 48.168C229.574 47.72 228.966 47.4 228.23 47.208C227.494 47.016 226.646 46.92 225.686 46.92C224.79 46.92 224.006 47.016 223.334 47.208C222.694 47.4 222.15 47.656 221.702 47.976C221.286 48.264 220.966 48.616 220.742 49.032C220.518 49.416 220.374 49.832 220.31 50.28H216.086C216.15 49.256 216.422 48.312 216.902 47.448C217.414 46.552 218.086 45.784 218.918 45.144C219.782 44.504 220.806 44.008 221.99 43.656C223.174 43.272 224.486 43.08 225.926 43.08C227.43 43.08 228.79 43.256 230.006 43.608C231.222 43.928 232.246 44.456 233.078 45.192C233.942 45.928 234.598 46.872 235.046 48.024C235.526 49.176 235.766 50.568 235.766 52.2V62.52C235.766 63.864 235.766 65.048 235.766 66.072C235.798 67.064 235.878 68.04 236.006 69H232.31C232.214 68.264 232.15 67.576 232.118 66.936C232.086 66.264 232.07 65.512 232.07 64.68C231.75 65.352 231.302 65.976 230.726 66.552C230.182 67.128 229.542 67.64 228.806 68.088C228.07 68.504 227.238 68.84 226.31 69.096C225.382 69.352 224.39 69.48 223.334 69.48ZM224.246 65.64C225.238 65.64 226.166 65.512 227.03 65.256C227.926 64.968 228.71 64.568 229.382 64.056C230.054 63.512 230.582 62.856 230.966 62.088C231.35 61.288 231.542 60.392 231.542 59.4V57.672H224.006C222.438 57.672 221.206 57.992 220.31 58.632C219.414 59.24 218.966 60.216 218.966 61.56C218.966 62.744 219.382 63.72 220.214 64.488C221.078 65.256 222.422 65.64 224.246 65.64ZM251.386 69.48C249.786 69.48 248.346 69.304 247.066 68.952C245.818 68.6 244.746 68.104 243.85 67.464C242.954 66.792 242.25 65.992 241.738 65.064C241.226 64.104 240.922 63.016 240.826 61.8H245.05C245.146 62.408 245.354 62.952 245.674 63.432C246.026 63.912 246.474 64.328 247.018 64.68C247.562 65 248.202 65.24 248.938 65.4C249.674 65.56 250.49 65.64 251.386 65.64C253.594 65.64 255.194 65.272 256.186 64.536C257.21 63.768 257.722 62.856 257.722 61.8C257.722 60.552 257.306 59.576 256.474 58.872C255.642 58.136 254.202 57.768 252.154 57.768H247.786V54.312H251.866C253.626 54.312 254.874 53.976 255.61 53.304C256.378 52.632 256.762 51.688 256.762 50.472C256.762 49.512 256.314 48.68 255.418 47.976C254.554 47.272 253.21 46.92 251.386 46.92C249.434 46.92 248.01 47.24 247.114 47.88C246.25 48.488 245.722 49.368 245.53 50.52H241.306C241.402 49.464 241.69 48.488 242.17 47.592C242.682 46.664 243.37 45.864 244.234 45.192C245.098 44.52 246.122 44.008 247.306 43.656C248.522 43.272 249.882 43.08 251.386 43.08C253.018 43.08 254.426 43.272 255.61 43.656C256.826 44.008 257.834 44.52 258.634 45.192C259.434 45.832 260.026 46.6 260.41 47.496C260.794 48.392 260.986 49.384 260.986 50.472C260.986 51.688 260.682 52.76 260.074 53.688C259.466 54.584 258.49 55.288 257.146 55.8C258.042 56.024 258.794 56.344 259.402 56.76C260.01 57.144 260.506 57.592 260.89 58.104C261.274 58.616 261.546 59.192 261.706 59.832C261.866 60.44 261.946 61.096 261.946 61.8C261.946 62.856 261.722 63.848 261.274 64.776C260.826 65.704 260.154 66.52 259.258 67.224C258.394 67.896 257.29 68.44 255.946 68.856C254.634 69.272 253.114 69.48 251.386 69.48ZM267.485 69V43.56H271.709V62.76L284.861 43.56H289.085V69H284.861V49.8L271.709 69H267.485ZM296.302 78.6V43.56H300.238V48.36C300.686 47.496 301.214 46.744 301.822 46.104C302.43 45.432 303.118 44.872 303.886 44.424C304.654 43.976 305.486 43.64 306.382 43.416C307.278 43.192 308.238 43.08 309.262 43.08C310.862 43.08 312.302 43.352 313.582 43.896C314.894 44.408 316.014 45.192 316.942 46.248C317.87 47.272 318.574 48.568 319.054 50.136C319.566 51.672 319.822 53.48 319.822 55.56V56.52C319.822 58.664 319.566 60.552 319.054 62.184C318.542 63.816 317.822 65.176 316.894 66.264C315.966 67.32 314.846 68.12 313.534 68.664C312.254 69.208 310.83 69.48 309.262 69.48C307.086 69.48 305.262 69 303.79 68.04C302.35 67.08 301.262 65.88 300.526 64.44V78.6H296.302ZM308.302 65.736C309.326 65.736 310.286 65.544 311.182 65.16C312.078 64.744 312.846 64.152 313.486 63.384C314.158 62.616 314.67 61.656 315.022 60.504C315.406 59.352 315.598 58.024 315.598 56.52V55.56C315.598 54.152 315.406 52.92 315.022 51.864C314.67 50.776 314.158 49.864 313.486 49.128C312.846 48.36 312.078 47.784 311.182 47.4C310.286 47.016 309.326 46.824 308.302 46.824C307.15 46.824 306.094 47.016 305.134 47.4C304.174 47.752 303.358 48.264 302.686 48.936C302.014 49.576 301.486 50.344 301.102 51.24C300.718 52.136 300.526 53.096 300.526 54.12V57.96C300.526 59.112 300.718 60.168 301.102 61.128C301.486 62.088 302.014 62.904 302.686 63.576C303.358 64.248 304.174 64.776 305.134 65.16C306.094 65.544 307.15 65.736 308.302 65.736ZM335.913 69.48C334.281 69.48 332.729 69.224 331.257 68.712C329.785 68.168 328.489 67.368 327.369 66.312C326.249 65.224 325.353 63.864 324.681 62.232C324.009 60.6 323.673 58.696 323.673 56.52V55.56C323.673 53.48 324.009 51.672 324.681 50.136C325.353 48.568 326.249 47.272 327.369 46.248C328.489 45.192 329.785 44.408 331.257 43.896C332.729 43.352 334.281 43.08 335.913 43.08C337.545 43.08 339.097 43.352 340.569 43.896C342.041 44.408 343.337 45.192 344.457 46.248C345.577 47.272 346.473 48.568 347.145 50.136C347.817 51.672 348.153 53.48 348.153 55.56V56.52C348.153 58.696 347.817 60.6 347.145 62.232C346.473 63.864 345.577 65.224 344.457 66.312C343.337 67.368 342.041 68.168 340.569 68.712C339.097 69.224 337.545 69.48 335.913 69.48ZM335.913 65.64C336.873 65.64 337.833 65.48 338.793 65.16C339.753 64.808 340.601 64.28 341.337 63.576C342.073 62.84 342.665 61.896 343.113 60.744C343.593 59.592 343.833 58.184 343.833 56.52V55.56C343.833 54.024 343.593 52.712 343.113 51.624C342.665 50.536 342.073 49.64 341.337 48.936C340.601 48.232 339.753 47.72 338.793 47.4C337.833 47.08 336.873 46.92 335.913 46.92C334.953 46.92 333.993 47.08 333.033 47.4C332.073 47.72 331.225 48.232 330.489 48.936C329.753 49.64 329.145 50.536 328.665 51.624C328.217 52.712 327.993 54.024 327.993 55.56V56.52C327.993 58.184 328.217 59.592 328.665 60.744C329.145 61.896 329.753 62.84 330.489 63.576C331.225 64.28 332.073 64.808 333.033 65.16C333.993 65.48 334.953 65.64 335.913 65.64ZM353.654 69V43.56H364.694C366.262 43.56 367.622 43.736 368.774 44.088C369.926 44.408 370.87 44.888 371.606 45.528C372.342 46.136 372.886 46.872 373.238 47.736C373.622 48.568 373.814 49.496 373.814 50.52C373.814 51.096 373.718 51.656 373.526 52.2C373.334 52.744 373.062 53.256 372.71 53.736C372.39 54.184 371.99 54.6 371.51 54.984C371.062 55.336 370.55 55.608 369.974 55.8C371.542 56.184 372.726 56.92 373.526 58.008C374.358 59.064 374.774 60.312 374.774 61.752C374.774 63.96 374.038 65.72 372.566 67.032C371.094 68.344 368.79 69 365.654 69H353.654ZM357.878 65.256H365.654C367.478 65.256 368.742 64.936 369.446 64.296C370.182 63.656 370.55 62.744 370.55 61.56C370.55 60.344 370.182 59.416 369.446 58.776C368.742 58.104 367.478 57.768 365.654 57.768H357.878V65.256ZM357.878 54.312H364.694C365.622 54.312 366.39 54.232 366.998 54.072C367.638 53.912 368.15 53.672 368.534 53.352C368.918 53.032 369.19 52.664 369.35 52.248C369.51 51.8 369.59 51.288 369.59 50.712C369.59 50.168 369.51 49.688 369.35 49.272C369.19 48.856 368.918 48.504 368.534 48.216C368.15 47.928 367.638 47.704 366.998 47.544C366.39 47.384 365.622 47.304 364.694 47.304H357.878V54.312ZM387.563 69.48C386.187 69.48 384.955 69.288 383.867 68.904C382.779 68.488 381.867 67.928 381.131 67.224C380.395 66.52 379.835 65.688 379.451 64.728C379.067 63.768 378.875 62.712 378.875 61.56C378.875 60.312 379.067 59.24 379.451 58.344C379.835 57.416 380.379 56.664 381.083 56.088C381.819 55.512 382.731 55.096 383.819 54.84C384.907 54.552 386.139 54.408 387.515 54.408H395.771V52.68C395.771 51.592 395.643 50.68 395.387 49.944C395.163 49.208 394.795 48.616 394.283 48.168C393.803 47.72 393.195 47.4 392.459 47.208C391.723 47.016 390.875 46.92 389.915 46.92C389.019 46.92 388.235 47.016 387.563 47.208C386.923 47.4 386.379 47.656 385.931 47.976C385.515 48.264 385.195 48.616 384.971 49.032C384.747 49.416 384.603 49.832 384.539 50.28H380.315C380.379 49.256 380.651 48.312 381.131 47.448C381.643 46.552 382.315 45.784 383.147 45.144C384.011 44.504 385.035 44.008 386.219 43.656C387.403 43.272 388.715 43.08 390.155 43.08C391.659 43.08 393.019 43.256 394.235 43.608C395.451 43.928 396.475 44.456 397.307 45.192C398.171 45.928 398.827 46.872 399.275 48.024C399.755 49.176 399.995 50.568 399.995 52.2V62.52C399.995 63.864 399.995 65.048 399.995 66.072C400.027 67.064 400.107 68.04 400.235 69H396.539C396.443 68.264 396.379 67.576 396.347 66.936C396.315 66.264 396.299 65.512 396.299 64.68C395.979 65.352 395.531 65.976 394.955 66.552C394.411 67.128 393.771 67.64 393.035 68.088C392.299 68.504 391.467 68.84 390.539 69.096C389.611 69.352 388.619 69.48 387.563 69.48ZM388.475 65.64C389.467 65.64 390.395 65.512 391.259 65.256C392.155 64.968 392.939 64.568 393.611 64.056C394.283 63.512 394.811 62.856 395.195 62.088C395.579 61.288 395.771 60.392 395.771 59.4V57.672H388.235C386.667 57.672 385.435 57.992 384.539 58.632C383.643 59.24 383.195 60.216 383.195 61.56C383.195 62.744 383.611 63.72 384.443 64.488C385.307 65.256 386.651 65.64 388.475 65.64ZM412.315 69V47.304H403.627V43.56H425.227V47.304H416.539V69H412.315ZM429.558 69V43.56H433.782V53.16H439.878C441.478 53.16 442.854 53.352 444.006 53.736C445.19 54.088 446.166 54.6 446.934 55.272C447.702 55.944 448.278 56.776 448.662 57.768C449.046 58.76 449.238 59.88 449.238 61.128C449.238 62.344 449.046 63.448 448.662 64.44C448.278 65.4 447.702 66.216 446.934 66.888C446.166 67.56 445.19 68.088 444.006 68.472C442.854 68.824 441.478 69 439.878 69H429.558ZM433.782 65.256H439.638C441.622 65.256 443.014 64.904 443.814 64.2C444.614 63.496 445.014 62.456 445.014 61.08C445.014 59.704 444.614 58.664 443.814 57.96C443.014 57.256 441.622 56.904 439.638 56.904H433.782V65.256Z" fill="white"/>
<path d="M500 29.625C485.987 29.625 474.625 40.9871 474.625 55C474.625 69.0129 485.987 80.375 500 80.375C514.013 80.375 525.375 69.0129 525.375 55C525.375 40.9871 514.013 29.625 500 29.625ZM509.368 64.6402L505.63 64.6232L500 57.9113L494.376 64.6176L490.632 64.6346C490.382 64.6346 490.179 64.4363 490.179 64.1814C490.179 64.0738 490.218 63.9719 490.286 63.8869L497.655 55.1076L490.286 46.334C490.218 46.251 490.18 46.147 490.179 46.0395C490.179 45.7902 490.382 45.5863 490.632 45.5863L494.376 45.6033L500 52.3152L505.624 45.609L509.363 45.592C509.612 45.592 509.816 45.7902 509.816 46.0451C509.816 46.1527 509.776 46.2547 509.708 46.3396L502.351 55.1133L509.714 63.8926C509.782 63.9775 509.821 64.0795 509.821 64.1871C509.821 64.4363 509.618 64.6402 509.368 64.6402Z" fill="white"/>
<path d="M595 54H655M655 54L631 30M655 54L631 78" stroke="#303035" stroke-width="8"/>
<rect width="558" height="100" transform="translate(689 4)" fill="#30BCED"/>
<path d="M734.774 69.48C733.142 69.48 731.622 69.224 730.214 68.712C728.806 68.168 727.59 67.368 726.566 66.312C725.542 65.224 724.726 63.864 724.118 62.232C723.542 60.6 723.254 58.696 723.254 56.52V55.56C723.254 53.48 723.574 51.672 724.214 50.136C724.854 48.568 725.702 47.272 726.758 46.248C727.814 45.192 729.03 44.408 730.406 43.896C731.814 43.352 733.27 43.08 734.774 43.08C736.278 43.08 737.622 43.288 738.806 43.704C740.022 44.12 741.062 44.696 741.926 45.432C742.822 46.168 743.542 47.032 744.086 48.024C744.662 49.016 745.078 50.088 745.334 51.24H741.014C740.758 50.632 740.454 50.072 740.102 49.56C739.782 49.016 739.366 48.552 738.854 48.168C738.374 47.784 737.798 47.48 737.126 47.256C736.486 47.032 735.702 46.92 734.774 46.92C733.846 46.92 732.95 47.096 732.086 47.448C731.222 47.768 730.454 48.28 729.782 48.984C729.11 49.656 728.566 50.536 728.15 51.624C727.766 52.712 727.574 54.024 727.574 55.56V56.52C727.574 58.152 727.766 59.56 728.15 60.744C728.566 61.896 729.11 62.84 729.782 63.576C730.454 64.28 731.222 64.808 732.086 65.16C732.95 65.48 733.846 65.64 734.774 65.64C736.342 65.64 737.654 65.256 738.71 64.488C739.798 63.72 740.566 62.664 741.014 61.32H745.334C745.046 62.568 744.582 63.704 743.942 64.728C743.302 65.72 742.518 66.568 741.59 67.272C740.694 67.976 739.67 68.52 738.518 68.904C737.366 69.288 736.118 69.48 734.774 69.48ZM753.033 79.08C752.777 79.08 752.537 79.064 752.313 79.032C752.089 79.032 751.849 79 751.593 78.936V75.096C751.849 75.16 752.089 75.192 752.313 75.192C752.537 75.224 752.777 75.24 753.033 75.24C753.513 75.24 753.929 75.16 754.281 75C754.633 74.84 754.969 74.536 755.289 74.088C755.641 73.64 755.993 73 756.345 72.168C756.697 71.368 757.113 70.312 757.593 69L746.793 43.56H751.497L759.753 64.2L767.241 43.56H771.753L762.153 69C761.481 70.792 760.841 72.328 760.233 73.608C759.625 74.888 758.969 75.928 758.265 76.728C757.593 77.56 756.841 78.152 756.009 78.504C755.177 78.888 754.185 79.08 753.033 79.08ZM776.053 69V43.56H780.565L789.637 59.4L798.709 43.56H802.933V69H798.709V50.52L791.173 63.48H787.813L780.277 50.52V69H776.053ZM810.119 69V43.56H814.631L823.703 59.4L832.775 43.56H836.999V69H832.775V50.52L825.239 63.48H821.879L814.343 50.52V69H810.119ZM851.434 69.48C850.058 69.48 848.826 69.288 847.738 68.904C846.65 68.488 845.738 67.928 845.002 67.224C844.266 66.52 843.706 65.688 843.322 64.728C842.938 63.768 842.746 62.712 842.746 61.56C842.746 60.312 842.938 59.24 843.322 58.344C843.706 57.416 844.25 56.664 844.954 56.088C845.69 55.512 846.602 55.096 847.69 54.84C848.778 54.552 850.01 54.408 851.386 54.408H859.642V52.68C859.642 51.592 859.514 50.68 859.258 49.944C859.034 49.208 858.666 48.616 858.154 48.168C857.674 47.72 857.066 47.4 856.33 47.208C855.594 47.016 854.746 46.92 853.786 46.92C852.89 46.92 852.106 47.016 851.434 47.208C850.794 47.4 850.25 47.656 849.802 47.976C849.386 48.264 849.066 48.616 848.842 49.032C848.618 49.416 848.474 49.832 848.41 50.28H844.186C844.25 49.256 844.522 48.312 845.002 47.448C845.514 46.552 846.186 45.784 847.018 45.144C847.882 44.504 848.906 44.008 850.09 43.656C851.274 43.272 852.586 43.08 854.026 43.08C855.53 43.08 856.89 43.256 858.106 43.608C859.322 43.928 860.346 44.456 861.178 45.192C862.042 45.928 862.698 46.872 863.146 48.024C863.626 49.176 863.866 50.568 863.866 52.2V62.52C863.866 63.864 863.866 65.048 863.866 66.072C863.898 67.064 863.978 68.04 864.106 69H860.41C860.314 68.264 860.25 67.576 860.218 66.936C860.186 66.264 860.17 65.512 860.17 64.68C859.85 65.352 859.402 65.976 858.826 66.552C858.282 67.128 857.642 67.64 856.906 68.088C856.17 68.504 855.338 68.84 854.41 69.096C853.482 69.352 852.49 69.48 851.434 69.48ZM852.346 65.64C853.338 65.64 854.266 65.512 855.13 65.256C856.026 64.968 856.81 64.568 857.482 64.056C858.154 63.512 858.682 62.856 859.066 62.088C859.45 61.288 859.642 60.392 859.642 59.4V57.672H852.106C850.538 57.672 849.306 57.992 848.41 58.632C847.514 59.24 847.066 60.216 847.066 61.56C847.066 62.744 847.482 63.72 848.314 64.488C849.178 65.256 850.522 65.64 852.346 65.64ZM870.847 78.6V43.56H874.783V48.36C875.231 47.496 875.759 46.744 876.367 46.104C876.975 45.432 877.663 44.872 878.431 44.424C879.199 43.976 880.031 43.64 880.927 43.416C881.823 43.192 882.783 43.08 883.807 43.08C885.407 43.08 886.847 43.352 888.127 43.896C889.439 44.408 890.559 45.192 891.487 46.248C892.415 47.272 893.119 48.568 893.599 50.136C894.111 51.672 894.367 53.48 894.367 55.56V56.52C894.367 58.664 894.111 60.552 893.599 62.184C893.087 63.816 892.367 65.176 891.439 66.264C890.511 67.32 889.391 68.12 888.079 68.664C886.799 69.208 885.375 69.48 883.807 69.48C881.631 69.48 879.807 69 878.335 68.04C876.895 67.08 875.807 65.88 875.071 64.44V78.6H870.847ZM882.847 65.736C883.871 65.736 884.831 65.544 885.727 65.16C886.623 64.744 887.391 64.152 888.031 63.384C888.703 62.616 889.215 61.656 889.567 60.504C889.951 59.352 890.143 58.024 890.143 56.52V55.56C890.143 54.152 889.951 52.92 889.567 51.864C889.215 50.776 888.703 49.864 888.031 49.128C887.391 48.36 886.623 47.784 885.727 47.4C884.831 47.016 883.871 46.824 882.847 46.824C881.695 46.824 880.639 47.016 879.679 47.4C878.719 47.752 877.903 48.264 877.231 48.936C876.559 49.576 876.031 50.344 875.647 51.24C875.263 52.136 875.071 53.096 875.071 54.12V57.96C875.071 59.112 875.263 60.168 875.647 61.128C876.031 62.088 876.559 62.904 877.231 63.576C877.903 64.248 878.719 64.776 879.679 65.16C880.639 65.544 881.695 65.736 882.847 65.736ZM899.898 69V43.56H904.122V62.76L917.274 43.56H921.498V69H917.274V49.8L904.122 69H899.898ZM937.355 69.48C935.755 69.48 934.315 69.304 933.035 68.952C931.787 68.6 930.715 68.104 929.819 67.464C928.923 66.792 928.219 65.992 927.707 65.064C927.195 64.104 926.891 63.016 926.795 61.8H931.019C931.115 62.408 931.323 62.952 931.643 63.432C931.995 63.912 932.443 64.328 932.987 64.68C933.531 65 934.171 65.24 934.907 65.4C935.643 65.56 936.459 65.64 937.355 65.64C939.563 65.64 941.163 65.272 942.155 64.536C943.179 63.768 943.691 62.856 943.691 61.8C943.691 60.552 943.275 59.576 942.443 58.872C941.611 58.136 940.171 57.768 938.123 57.768H933.755V54.312H937.835C939.595 54.312 940.843 53.976 941.579 53.304C942.347 52.632 942.731 51.688 942.731 50.472C942.731 49.512 942.283 48.68 941.387 47.976C940.523 47.272 939.179 46.92 937.355 46.92C935.403 46.92 933.979 47.24 933.083 47.88C932.219 48.488 931.691 49.368 931.499 50.52H927.275C927.371 49.464 927.659 48.488 928.139 47.592C928.651 46.664 929.339 45.864 930.203 45.192C931.067 44.52 932.091 44.008 933.275 43.656C934.491 43.272 935.851 43.08 937.355 43.08C938.987 43.08 940.395 43.272 941.579 43.656C942.795 44.008 943.803 44.52 944.603 45.192C945.403 45.832 945.995 46.6 946.379 47.496C946.763 48.392 946.955 49.384 946.955 50.472C946.955 51.688 946.651 52.76 946.043 53.688C945.435 54.584 944.459 55.288 943.115 55.8C944.011 56.024 944.763 56.344 945.371 56.76C945.979 57.144 946.475 57.592 946.859 58.104C947.243 58.616 947.515 59.192 947.675 59.832C947.835 60.44 947.915 61.096 947.915 61.8C947.915 62.856 947.691 63.848 947.243 64.776C946.795 65.704 946.123 66.52 945.227 67.224C944.363 67.896 943.259 68.44 941.915 68.856C940.603 69.272 939.083 69.48 937.355 69.48ZM953.454 69V43.56H957.678V62.76L970.83 43.56H975.054V69H970.83V49.8L957.678 69H953.454ZM982.271 78.6V43.56H986.207V48.36C986.655 47.496 987.183 46.744 987.791 46.104C988.399 45.432 989.087 44.872 989.855 44.424C990.623 43.976 991.455 43.64 992.351 43.416C993.247 43.192 994.207 43.08 995.231 43.08C996.831 43.08 998.271 43.352 999.551 43.896C1000.86 44.408 1001.98 45.192 1002.91 46.248C1003.84 47.272 1004.54 48.568 1005.02 50.136C1005.53 51.672 1005.79 53.48 1005.79 55.56V56.52C1005.79 58.664 1005.53 60.552 1005.02 62.184C1004.51 63.816 1003.79 65.176 1002.86 66.264C1001.93 67.32 1000.81 68.12 999.503 68.664C998.223 69.208 996.799 69.48 995.231 69.48C993.055 69.48 991.231 69 989.759 68.04C988.319 67.08 987.231 65.88 986.495 64.44V78.6H982.271ZM994.271 65.736C995.295 65.736 996.255 65.544 997.151 65.16C998.047 64.744 998.815 64.152 999.455 63.384C1000.13 62.616 1000.64 61.656 1000.99 60.504C1001.37 59.352 1001.57 58.024 1001.57 56.52V55.56C1001.57 54.152 1001.37 52.92 1000.99 51.864C1000.64 50.776 1000.13 49.864 999.455 49.128C998.815 48.36 998.047 47.784 997.151 47.4C996.255 47.016 995.295 46.824 994.271 46.824C993.119 46.824 992.063 47.016 991.103 47.4C990.143 47.752 989.327 48.264 988.655 48.936C987.983 49.576 987.455 50.344 987.071 51.24C986.687 52.136 986.495 53.096 986.495 54.12V57.96C986.495 59.112 986.687 60.168 987.071 61.128C987.455 62.088 987.983 62.904 988.655 63.576C989.327 64.248 990.143 64.776 991.103 65.16C992.063 65.544 993.119 65.736 994.271 65.736ZM1021.88 69.48C1020.25 69.48 1018.7 69.224 1017.23 68.712C1015.75 68.168 1014.46 67.368 1013.34 66.312C1012.22 65.224 1011.32 63.864 1010.65 62.232C1009.98 60.6 1009.64 58.696 1009.64 56.52V55.56C1009.64 53.48 1009.98 51.672 1010.65 50.136C1011.32 48.568 1012.22 47.272 1013.34 46.248C1014.46 45.192 1015.75 44.408 1017.23 43.896C1018.7 43.352 1020.25 43.08 1021.88 43.08C1023.51 43.08 1025.07 43.352 1026.54 43.896C1028.01 44.408 1029.31 45.192 1030.43 46.248C1031.55 47.272 1032.44 48.568 1033.11 50.136C1033.79 51.672 1034.12 53.48 1034.12 55.56V56.52C1034.12 58.696 1033.79 60.6 1033.11 62.232C1032.44 63.864 1031.55 65.224 1030.43 66.312C1029.31 67.368 1028.01 68.168 1026.54 68.712C1025.07 69.224 1023.51 69.48 1021.88 69.48ZM1021.88 65.64C1022.84 65.64 1023.8 65.48 1024.76 65.16C1025.72 64.808 1026.57 64.28 1027.31 63.576C1028.04 62.84 1028.63 61.896 1029.08 60.744C1029.56 59.592 1029.8 58.184 1029.8 56.52V55.56C1029.8 54.024 1029.56 52.712 1029.08 51.624C1028.63 50.536 1028.04 49.64 1027.31 48.936C1026.57 48.232 1025.72 47.72 1024.76 47.4C1023.8 47.08 1022.84 46.92 1021.88 46.92C1020.92 46.92 1019.96 47.08 1019 47.4C1018.04 47.72 1017.19 48.232 1016.46 48.936C1015.72 49.64 1015.11 50.536 1014.63 51.624C1014.19 52.712 1013.96 54.024 1013.96 55.56V56.52C1013.96 58.184 1014.19 59.592 1014.63 60.744C1015.11 61.896 1015.72 62.84 1016.46 63.576C1017.19 64.28 1018.04 64.808 1019 65.16C1019.96 65.48 1020.92 65.64 1021.88 65.64ZM1039.62 69V43.56H1050.66C1052.23 43.56 1053.59 43.736 1054.74 44.088C1055.9 44.408 1056.84 44.888 1057.58 45.528C1058.31 46.136 1058.86 46.872 1059.21 47.736C1059.59 48.568 1059.78 49.496 1059.78 50.52C1059.78 51.096 1059.69 51.656 1059.5 52.2C1059.3 52.744 1059.03 53.256 1058.68 53.736C1058.36 54.184 1057.96 54.6 1057.48 54.984C1057.03 55.336 1056.52 55.608 1055.94 55.8C1057.51 56.184 1058.7 56.92 1059.5 58.008C1060.33 59.064 1060.74 60.312 1060.74 61.752C1060.74 63.96 1060.01 65.72 1058.54 67.032C1057.06 68.344 1054.76 69 1051.62 69H1039.62ZM1043.85 65.256H1051.62C1053.45 65.256 1054.71 64.936 1055.42 64.296C1056.15 63.656 1056.52 62.744 1056.52 61.56C1056.52 60.344 1056.15 59.416 1055.42 58.776C1054.71 58.104 1053.45 57.768 1051.62 57.768H1043.85V65.256ZM1043.85 54.312H1050.66C1051.59 54.312 1052.36 54.232 1052.97 54.072C1053.61 53.912 1054.12 53.672 1054.5 53.352C1054.89 53.032 1055.16 52.664 1055.32 52.248C1055.48 51.8 1055.56 51.288 1055.56 50.712C1055.56 50.168 1055.48 49.688 1055.32 49.272C1055.16 48.856 1054.89 48.504 1054.5 48.216C1054.12 47.928 1053.61 47.704 1052.97 47.544C1052.36 47.384 1051.59 47.304 1050.66 47.304H1043.85V54.312ZM1073.53 69.48C1072.16 69.48 1070.92 69.288 1069.84 68.904C1068.75 68.488 1067.84 67.928 1067.1 67.224C1066.36 66.52 1065.8 65.688 1065.42 64.728C1065.04 63.768 1064.84 62.712 1064.84 61.56C1064.84 60.312 1065.04 59.24 1065.42 58.344C1065.8 57.416 1066.35 56.664 1067.05 56.088C1067.79 55.512 1068.7 55.096 1069.79 54.84C1070.88 54.552 1072.11 54.408 1073.48 54.408H1081.74V52.68C1081.74 51.592 1081.61 50.68 1081.36 49.944C1081.13 49.208 1080.76 48.616 1080.25 48.168C1079.77 47.72 1079.16 47.4 1078.43 47.208C1077.69 47.016 1076.84 46.92 1075.88 46.92C1074.99 46.92 1074.2 47.016 1073.53 47.208C1072.89 47.4 1072.35 47.656 1071.9 47.976C1071.48 48.264 1071.16 48.616 1070.94 49.032C1070.72 49.416 1070.57 49.832 1070.51 50.28H1066.28C1066.35 49.256 1066.62 48.312 1067.1 47.448C1067.61 46.552 1068.28 45.784 1069.12 45.144C1069.98 44.504 1071 44.008 1072.19 43.656C1073.37 43.272 1074.68 43.08 1076.12 43.08C1077.63 43.08 1078.99 43.256 1080.2 43.608C1081.42 43.928 1082.44 44.456 1083.28 45.192C1084.14 45.928 1084.8 46.872 1085.24 48.024C1085.72 49.176 1085.96 50.568 1085.96 52.2V62.52C1085.96 63.864 1085.96 65.048 1085.96 66.072C1086 67.064 1086.08 68.04 1086.2 69H1082.51C1082.41 68.264 1082.35 67.576 1082.32 66.936C1082.28 66.264 1082.27 65.512 1082.27 64.68C1081.95 65.352 1081.5 65.976 1080.92 66.552C1080.38 67.128 1079.74 67.64 1079 68.088C1078.27 68.504 1077.44 68.84 1076.51 69.096C1075.58 69.352 1074.59 69.48 1073.53 69.48ZM1074.44 65.64C1075.44 65.64 1076.36 65.512 1077.23 65.256C1078.12 64.968 1078.91 64.568 1079.58 64.056C1080.25 63.512 1080.78 62.856 1081.16 62.088C1081.55 61.288 1081.74 60.392 1081.74 59.4V57.672H1074.2C1072.64 57.672 1071.4 57.992 1070.51 58.632C1069.61 59.24 1069.16 60.216 1069.16 61.56C1069.16 62.744 1069.58 63.72 1070.41 64.488C1071.28 65.256 1072.62 65.64 1074.44 65.64ZM1098.28 69V47.304H1089.6V43.56H1111.2V47.304H1102.51V69H1098.28ZM1115.53 69V43.56H1119.75V53.16H1125.85C1127.45 53.16 1128.82 53.352 1129.97 53.736C1131.16 54.088 1132.13 54.6 1132.9 55.272C1133.67 55.944 1134.25 56.776 1134.63 57.768C1135.01 58.76 1135.21 59.88 1135.21 61.128C1135.21 62.344 1135.01 63.448 1134.63 64.44C1134.25 65.4 1133.67 66.216 1132.9 66.888C1132.13 67.56 1131.16 68.088 1129.97 68.472C1128.82 68.824 1127.45 69 1125.85 69H1115.53ZM1119.75 65.256H1125.61C1127.59 65.256 1128.98 64.904 1129.78 64.2C1130.58 63.496 1130.98 62.456 1130.98 61.08C1130.98 59.704 1130.58 58.664 1129.78 57.96C1128.98 57.256 1127.59 56.904 1125.61 56.904H1119.75V65.256Z" fill="white"/>
<path d="M1186 29.625C1171.99 29.625 1160.62 40.9871 1160.62 55C1160.62 69.0129 1171.99 80.375 1186 80.375C1200.01 80.375 1211.38 69.0129 1211.38 55C1211.38 40.9871 1200.01 29.625 1186 29.625ZM1195.37 64.6402L1191.63 64.6232L1186 57.9113L1180.38 64.6176L1176.63 64.6346C1176.38 64.6346 1176.18 64.4363 1176.18 64.1814C1176.18 64.0738 1176.22 63.9719 1176.29 63.8869L1183.66 55.1076L1176.29 46.334C1176.22 46.251 1176.18 46.147 1176.18 46.0395C1176.18 45.7902 1176.38 45.5863 1176.63 45.5863L1180.38 45.6033L1186 52.3152L1191.62 45.609L1195.36 45.592C1195.61 45.592 1195.82 45.7902 1195.82 46.0451C1195.82 46.1527 1195.78 46.2547 1195.71 46.3396L1188.35 55.1133L1195.71 63.8926C1195.78 63.9775 1195.82 64.0795 1195.82 64.1871C1195.82 64.4363 1195.62 64.6402 1195.37 64.6402Z" fill="white"/>
<path d="M1281 54H1341M1341 54L1317 30M1341 54L1317 78" stroke="#303035" stroke-width="8"/>
<rect x="2" y="2" width="1604" height="104" stroke="#303035" stroke-width="4"/>
<rect x="2" y="102" width="1604" height="104" fill="white"/>
<path d="M22 154H82M82 154L58 130M82 154L58 178" stroke="#303035" stroke-width="8"/>
<rect width="838" height="100" transform="translate(116 104)" fill="#30BCED"/>
<path d="M162.845 169.48C161.213 169.48 159.661 169.224 158.189 168.712C156.717 168.168 155.421 167.368 154.301 166.312C153.181 165.224 152.285 163.864 151.613 162.232C150.941 160.6 150.605 158.696 150.605 156.52V155.56C150.605 153.48 150.941 151.672 151.613 150.136C152.285 148.568 153.181 147.272 154.301 146.248C155.421 145.192 156.717 144.408 158.189 143.896C159.661 143.352 161.213 143.08 162.845 143.08C164.477 143.08 166.029 143.352 167.501 143.896C168.973 144.408 170.269 145.192 171.389 146.248C172.509 147.272 173.405 148.568 174.077 150.136C174.749 151.672 175.085 153.48 175.085 155.56V156.52C175.085 158.696 174.749 160.6 174.077 162.232C173.405 163.864 172.509 165.224 171.389 166.312C170.269 167.368 168.973 168.168 167.501 168.712C166.029 169.224 164.477 169.48 162.845 169.48ZM162.845 165.64C163.805 165.64 164.765 165.48 165.725 165.16C166.685 164.808 167.533 164.28 168.269 163.576C169.005 162.84 169.597 161.896 170.045 160.744C170.525 159.592 170.765 158.184 170.765 156.52V155.56C170.765 154.024 170.525 152.712 170.045 151.624C169.597 150.536 169.005 149.64 168.269 148.936C167.533 148.232 166.685 147.72 165.725 147.4C164.765 147.08 163.805 146.92 162.845 146.92C161.885 146.92 160.925 147.08 159.965 147.4C159.005 147.72 158.157 148.232 157.421 148.936C156.685 149.64 156.077 150.536 155.597 151.624C155.149 152.712 154.925 154.024 154.925 155.56V156.52C154.925 158.184 155.149 159.592 155.597 160.744C156.077 161.896 156.685 162.84 157.421 163.576C158.157 164.28 159.005 164.808 159.965 165.16C160.925 165.48 161.885 165.64 162.845 165.64ZM191.147 169.48C189.483 169.48 187.915 169.16 186.443 168.52C184.971 167.88 183.691 166.952 182.603 165.736C181.547 164.488 180.699 162.968 180.059 161.176C179.451 159.384 179.147 157.352 179.147 155.08V154.12C179.147 151.24 179.355 148.68 179.771 146.44C180.187 144.168 180.891 142.248 181.883 140.68C182.907 139.08 184.235 137.832 185.867 136.936C187.531 136.04 189.611 135.528 192.107 135.4C193.131 135.336 194.075 135.304 194.939 135.304C195.803 135.272 196.619 135.224 197.387 135.16C198.155 135.064 198.859 134.952 199.499 134.824C200.139 134.696 200.715 134.488 201.227 134.2V138.28C200.971 138.408 200.603 138.536 200.123 138.664C199.675 138.76 199.099 138.856 198.395 138.952C197.723 139.016 196.923 139.08 195.995 139.144C195.067 139.208 194.011 139.256 192.827 139.288C191.291 139.32 189.931 139.512 188.747 139.864C187.595 140.216 186.603 140.776 185.771 141.544C184.971 142.312 184.331 143.32 183.851 144.568C183.403 145.784 183.115 147.288 182.987 149.08C183.371 148.216 183.867 147.448 184.475 146.776C185.083 146.104 185.771 145.528 186.539 145.048C187.307 144.568 188.155 144.2 189.083 143.944C190.043 143.688 191.051 143.56 192.107 143.56C193.739 143.56 195.227 143.848 196.571 144.424C197.915 144.968 199.067 145.752 200.027 146.776C201.019 147.8 201.787 149.064 202.331 150.568C202.875 152.04 203.147 153.704 203.147 155.56V156.52C203.147 158.472 202.843 160.248 202.235 161.848C201.627 163.448 200.795 164.824 199.739 165.976C198.683 167.096 197.419 167.96 195.947 168.568C194.475 169.176 192.875 169.48 191.147 169.48ZM191.147 165.64C192.267 165.64 193.291 165.448 194.219 165.064C195.179 164.648 195.995 164.056 196.667 163.288C197.339 162.52 197.867 161.576 198.251 160.456C198.635 159.304 198.827 157.992 198.827 156.52V155.56C198.827 154.312 198.635 153.192 198.251 152.2C197.867 151.208 197.339 150.36 196.667 149.656C195.995 148.92 195.179 148.36 194.219 147.976C193.291 147.592 192.267 147.4 191.147 147.4C190.027 147.4 188.987 147.592 188.027 147.976C187.099 148.36 186.299 148.92 185.627 149.656C184.955 150.36 184.427 151.208 184.043 152.2C183.659 153.192 183.467 154.312 183.467 155.56V156.52C183.467 157.928 183.659 159.208 184.043 160.36C184.459 161.48 185.019 162.44 185.723 163.24C186.427 164.008 187.243 164.6 188.171 165.016C189.099 165.432 190.091 165.64 191.147 165.64ZM212.025 169V147.304H205.305V143.56H216.249V153.16H222.345C223.945 153.16 225.321 153.352 226.473 153.736C227.657 154.088 228.633 154.6 229.401 155.272C230.169 155.944 230.745 156.776 231.129 157.768C231.513 158.76 231.705 159.88 231.705 161.128C231.705 162.344 231.513 163.448 231.129 164.44C230.745 165.4 230.169 166.216 229.401 166.888C228.633 167.56 227.657 168.088 226.473 168.472C225.321 168.824 223.945 169 222.345 169H212.025ZM216.249 165.256H222.105C224.089 165.256 225.481 164.904 226.281 164.2C227.081 163.496 227.481 162.456 227.481 161.08C227.481 159.704 227.081 158.664 226.281 157.96C225.481 157.256 224.089 156.904 222.105 156.904H216.249V165.256ZM234.847 169L241.759 158.92C239.647 158.44 238.127 157.576 237.199 156.328C236.271 155.08 235.807 153.448 235.807 151.432C235.807 150.184 235.983 149.08 236.335 148.12C236.719 147.128 237.295 146.296 238.063 145.624C238.863 144.952 239.871 144.44 241.087 144.088C242.303 143.736 243.743 143.56 245.407 143.56H256.447V169H252.223V159.304H245.743L239.551 169H234.847ZM245.167 155.56H252.223V147.304H245.167C243.311 147.304 241.983 147.656 241.183 148.36C240.415 149.064 240.031 150.088 240.031 151.432C240.031 152.776 240.415 153.8 241.183 154.504C241.983 155.208 243.311 155.56 245.167 155.56ZM273.502 169.48C271.87 169.48 270.35 169.224 268.942 168.712C267.534 168.168 266.318 167.368 265.294 166.312C264.27 165.224 263.454 163.864 262.846 162.232C262.27 160.6 261.982 158.696 261.982 156.52V155.56C261.982 153.48 262.302 151.672 262.942 150.136C263.582 148.568 264.43 147.272 265.486 146.248C266.542 145.192 267.758 144.408 269.134 143.896C270.542 143.352 271.998 143.08 273.502 143.08C275.006 143.08 276.35 143.288 277.534 143.704C278.75 144.12 279.79 144.696 280.654 145.432C281.55 146.168 282.27 147.032 282.814 148.024C283.39 149.016 283.806 150.088 284.062 151.24H279.742C279.486 150.632 279.182 150.072 278.83 149.56C278.51 149.016 278.094 148.552 277.582 148.168C277.102 147.784 276.526 147.48 275.854 147.256C275.214 147.032 274.43 146.92 273.502 146.92C272.574 146.92 271.678 147.096 270.814 147.448C269.95 147.768 269.182 148.28 268.51 148.984C267.838 149.656 267.294 150.536 266.878 151.624C266.494 152.712 266.302 154.024 266.302 155.56V156.52C266.302 158.152 266.494 159.56 266.878 160.744C267.294 161.896 267.838 162.84 268.51 163.576C269.182 164.28 269.95 164.808 270.814 165.16C271.678 165.48 272.574 165.64 273.502 165.64C275.07 165.64 276.382 165.256 277.438 164.488C278.526 163.72 279.294 162.664 279.742 161.32H284.062C283.774 162.568 283.31 163.704 282.67 164.728C282.03 165.72 281.246 166.568 280.318 167.272C279.422 167.976 278.398 168.52 277.246 168.904C276.094 169.288 274.846 169.48 273.502 169.48ZM289.338 169V143.56H293.562V154.168H306.714V143.56H310.938V169H306.714V157.912H293.562V169H289.338ZM318.155 169V143.56H322.379V162.76L335.531 143.56H339.755V169H335.531V149.8L322.379 169H318.155ZM352.78 169V147.304H344.092V143.56H365.692V147.304H357.004V169H352.78ZM370.023 169V143.56H374.247V153.16H380.343C381.943 153.16 383.319 153.352 384.471 153.736C385.655 154.088 386.631 154.6 387.399 155.272C388.167 155.944 388.743 156.776 389.127 157.768C389.511 158.76 389.703 159.88 389.703 161.128C389.703 162.344 389.511 163.448 389.127 164.44C388.743 165.4 388.167 166.216 387.399 166.888C386.631 167.56 385.655 168.088 384.471 168.472C383.319 168.824 381.943 169 380.343 169H370.023ZM374.247 165.256H380.103C382.087 165.256 383.479 164.904 384.279 164.2C385.079 163.496 385.479 162.456 385.479 161.08C385.479 159.704 385.079 158.664 384.279 157.96C383.479 157.256 382.087 156.904 380.103 156.904H374.247V165.256ZM406.282 169V143.56H427.402V169H423.178V147.304H410.506V169H406.282ZM434.583 178.6V143.56H438.519V148.36C438.967 147.496 439.495 146.744 440.103 146.104C440.711 145.432 441.399 144.872 442.167 144.424C442.935 143.976 443.767 143.64 444.663 143.416C445.559 143.192 446.519 143.08 447.543 143.08C449.143 143.08 450.583 143.352 451.863 143.896C453.175 144.408 454.295 145.192 455.223 146.248C456.151 147.272 456.855 148.568 457.335 150.136C457.847 151.672 458.103 153.48 458.103 155.56V156.52C458.103 158.664 457.847 160.552 457.335 162.184C456.823 163.816 456.103 165.176 455.175 166.264C454.247 167.32 453.127 168.12 451.815 168.664C450.535 169.208 449.111 169.48 447.543 169.48C445.367 169.48 443.543 169 442.071 168.04C440.631 167.08 439.543 165.88 438.807 164.44V178.6H434.583ZM446.583 165.736C447.607 165.736 448.567 165.544 449.463 165.16C450.359 164.744 451.127 164.152 451.767 163.384C452.439 162.616 452.951 161.656 453.303 160.504C453.687 159.352 453.879 158.024 453.879 156.52V155.56C453.879 154.152 453.687 152.92 453.303 151.864C452.951 150.776 452.439 149.864 451.767 149.128C451.127 148.36 450.359 147.784 449.463 147.4C448.567 147.016 447.607 146.824 446.583 146.824C445.431 146.824 444.375 147.016 443.415 147.4C442.455 147.752 441.639 148.264 440.967 148.936C440.295 149.576 439.767 150.344 439.383 151.24C438.999 152.136 438.807 153.096 438.807 154.12V157.96C438.807 159.112 438.999 160.168 439.383 161.128C439.767 162.088 440.295 162.904 440.967 163.576C441.639 164.248 442.455 164.776 443.415 165.16C444.375 165.544 445.431 165.736 446.583 165.736ZM474.195 169.48C472.563 169.48 471.011 169.224 469.539 168.712C468.067 168.168 466.771 167.368 465.651 166.312C464.531 165.224 463.635 163.864 462.963 162.232C462.291 160.6 461.955 158.696 461.955 156.52V155.56C461.955 153.48 462.291 151.672 462.963 150.136C463.635 148.568 464.531 147.272 465.651 146.248C466.771 145.192 468.067 144.408 469.539 143.896C471.011 143.352 472.563 143.08 474.195 143.08C475.827 143.08 477.379 143.352 478.851 143.896C480.323 144.408 481.619 145.192 482.739 146.248C483.859 147.272 484.755 148.568 485.427 150.136C486.099 151.672 486.435 153.48 486.435 155.56V156.52C486.435 158.696 486.099 160.6 485.427 162.232C484.755 163.864 483.859 165.224 482.739 166.312C481.619 167.368 480.323 168.168 478.851 168.712C477.379 169.224 475.827 169.48 474.195 169.48ZM474.195 165.64C475.155 165.64 476.115 165.48 477.075 165.16C478.035 164.808 478.883 164.28 479.619 163.576C480.355 162.84 480.947 161.896 481.395 160.744C481.875 159.592 482.115 158.184 482.115 156.52V155.56C482.115 154.024 481.875 152.712 481.395 151.624C480.947 150.536 480.355 149.64 479.619 148.936C478.883 148.232 478.035 147.72 477.075 147.4C476.115 147.08 475.155 146.92 474.195 146.92C473.235 146.92 472.275 147.08 471.315 147.4C470.355 147.72 469.507 148.232 468.771 148.936C468.035 149.64 467.427 150.536 466.947 151.624C466.499 152.712 466.275 154.024 466.275 155.56V156.52C466.275 158.184 466.499 159.592 466.947 160.744C467.427 161.896 468.035 162.84 468.771 163.576C469.507 164.28 470.355 164.808 471.315 165.16C472.275 165.48 473.235 165.64 474.195 165.64ZM501.776 169.48C500.144 169.48 498.624 169.224 497.216 168.712C495.808 168.168 494.592 167.368 493.568 166.312C492.544 165.224 491.728 163.864 491.12 162.232C490.544 160.6 490.256 158.696 490.256 156.52V155.56C490.256 153.48 490.576 151.672 491.216 150.136C491.856 148.568 492.704 147.272 493.76 146.248C494.816 145.192 496.032 144.408 497.408 143.896C498.816 143.352 500.272 143.08 501.776 143.08C503.28 143.08 504.624 143.288 505.808 143.704C507.024 144.12 508.064 144.696 508.928 145.432C509.824 146.168 510.544 147.032 511.088 148.024C511.664 149.016 512.08 150.088 512.336 151.24H508.016C507.76 150.632 507.456 150.072 507.104 149.56C506.784 149.016 506.368 148.552 505.856 148.168C505.376 147.784 504.8 147.48 504.128 147.256C503.488 147.032 502.704 146.92 501.776 146.92C500.848 146.92 499.952 147.096 499.088 147.448C498.224 147.768 497.456 148.28 496.784 148.984C496.112 149.656 495.568 150.536 495.152 151.624C494.768 152.712 494.576 154.024 494.576 155.56V156.52C494.576 158.152 494.768 159.56 495.152 160.744C495.568 161.896 496.112 162.84 496.784 163.576C497.456 164.28 498.224 164.808 499.088 165.16C499.952 165.48 500.848 165.64 501.776 165.64C503.344 165.64 504.656 165.256 505.712 164.488C506.8 163.72 507.568 162.664 508.016 161.32H512.336C512.048 162.568 511.584 163.704 510.944 164.728C510.304 165.72 509.52 166.568 508.592 167.272C507.696 167.976 506.672 168.52 505.52 168.904C504.368 169.288 503.12 169.48 501.776 169.48ZM523.42 169V147.304H514.732V143.56H536.332V147.304H527.644V169H523.42ZM540.663 169V143.56H544.887V153.16H550.023C551.623 153.16 552.999 153.352 554.151 153.736C555.335 154.088 556.311 154.6 557.079 155.272C557.847 155.944 558.423 156.776 558.807 157.768C559.191 158.76 559.383 159.88 559.383 161.128C559.383 162.344 559.191 163.448 558.807 164.44C558.423 165.4 557.847 166.216 557.079 166.888C556.311 167.56 555.335 168.088 554.151 168.472C552.999 168.824 551.623 169 550.023 169H540.663ZM544.887 165.256H549.783C551.767 165.256 553.159 164.904 553.959 164.2C554.759 163.496 555.159 162.456 555.159 161.08C555.159 159.704 554.759 158.664 553.959 157.96C553.159 157.256 551.767 156.904 549.783 156.904H544.887V165.256ZM563.319 169V143.56H567.543V169H563.319ZM574.73 169V143.56H579.242L588.314 159.4L597.386 143.56H601.61V169H597.386V150.52L589.85 163.48H586.49L578.954 150.52V169H574.73ZM608.797 169V143.56H613.021V162.76L626.173 143.56H630.397V169H626.173V149.8L613.021 169H608.797ZM658.974 169.48C657.342 169.48 655.822 169.224 654.414 168.712C653.006 168.168 651.79 167.368 650.766 166.312C649.742 165.224 648.926 163.864 648.318 162.232C647.742 160.6 647.454 158.696 647.454 156.52V155.56C647.454 153.48 647.774 151.672 648.414 150.136C649.054 148.568 649.902 147.272 650.958 146.248C652.014 145.192 653.23 144.408 654.606 143.896C656.014 143.352 657.47 143.08 658.974 143.08C660.478 143.08 661.822 143.288 663.006 143.704C664.222 144.12 665.262 144.696 666.126 145.432C667.022 146.168 667.742 147.032 668.286 148.024C668.862 149.016 669.278 150.088 669.534 151.24H665.214C664.958 150.632 664.654 150.072 664.302 149.56C663.982 149.016 663.566 148.552 663.054 148.168C662.574 147.784 661.998 147.48 661.326 147.256C660.686 147.032 659.902 146.92 658.974 146.92C658.046 146.92 657.15 147.096 656.286 147.448C655.422 147.768 654.654 148.28 653.982 148.984C653.31 149.656 652.766 150.536 652.35 151.624C651.966 152.712 651.774 154.024 651.774 155.56V156.52C651.774 158.152 651.966 159.56 652.35 160.744C652.766 161.896 653.31 162.84 653.982 163.576C654.654 164.28 655.422 164.808 656.286 165.16C657.15 165.48 658.046 165.64 658.974 165.64C660.542 165.64 661.854 165.256 662.91 164.488C663.998 163.72 664.766 162.664 665.214 161.32H669.534C669.246 162.568 668.782 163.704 668.142 164.728C667.502 165.72 666.718 166.568 665.79 167.272C664.894 167.976 663.87 168.52 662.718 168.904C661.566 169.288 660.318 169.48 658.974 169.48ZM673.61 169.48C673.482 169.48 673.354 169.48 673.226 169.48C673.13 169.48 673.018 169.464 672.89 169.432C672.762 169.432 672.634 169.416 672.506 169.384C672.41 169.384 672.298 169.368 672.17 169.336V165.112C672.234 165.144 672.33 165.16 672.458 165.16C672.586 165.16 672.73 165.16 672.89 165.16C673.626 165.16 674.25 164.936 674.762 164.488C675.274 164.04 675.69 163.256 676.01 162.136C676.33 161.016 676.57 159.496 676.73 157.576C676.89 155.656 676.97 153.224 676.97 150.28V143.56H695.21V169H690.986V147.304H681.194V151.24C681.194 154.792 681.034 157.736 680.714 160.072C680.394 162.408 679.914 164.28 679.274 165.688C678.666 167.064 677.882 168.04 676.922 168.616C675.962 169.192 674.858 169.48 673.61 169.48ZM712.968 169.48C711.336 169.48 709.784 169.224 708.312 168.712C706.84 168.168 705.544 167.368 704.424 166.312C703.304 165.224 702.408 163.864 701.736 162.232C701.064 160.6 700.728 158.696 700.728 156.52V155.56C700.728 153.48 701.064 151.672 701.736 150.136C702.408 148.568 703.304 147.272 704.424 146.248C705.544 145.192 706.84 144.408 708.312 143.896C709.784 143.352 711.336 143.08 712.968 143.08C714.6 143.08 716.152 143.352 717.624 143.896C719.096 144.408 720.392 145.192 721.512 146.248C722.632 147.272 723.528 148.568 724.2 150.136C724.872 151.672 725.208 153.48 725.208 155.56V156.52C725.208 158.696 724.872 160.6 724.2 162.232C723.528 163.864 722.632 165.224 721.512 166.312C720.392 167.368 719.096 168.168 717.624 168.712C716.152 169.224 714.6 169.48 712.968 169.48ZM712.968 165.64C713.928 165.64 714.888 165.48 715.848 165.16C716.808 164.808 717.656 164.28 718.392 163.576C719.128 162.84 719.72 161.896 720.168 160.744C720.648 159.592 720.888 158.184 720.888 156.52V155.56C720.888 154.024 720.648 152.712 720.168 151.624C719.72 150.536 719.128 149.64 718.392 148.936C717.656 148.232 716.808 147.72 715.848 147.4C714.888 147.08 713.928 146.92 712.968 146.92C712.008 146.92 711.048 147.08 710.088 147.4C709.128 147.72 708.28 148.232 707.544 148.936C706.808 149.64 706.2 150.536 705.72 151.624C705.272 152.712 705.048 154.024 705.048 155.56V156.52C705.048 158.184 705.272 159.592 705.72 160.744C706.2 161.896 706.808 162.84 707.544 163.576C708.28 164.28 709.128 164.808 710.088 165.16C711.048 165.48 712.008 165.64 712.968 165.64ZM730.71 169V143.56H741.75C743.318 143.56 744.678 143.736 745.83 144.088C746.982 144.408 747.926 144.888 748.662 145.528C749.398 146.136 749.942 146.872 750.294 147.736C750.678 148.568 750.87 149.496 750.87 150.52C750.87 151.096 750.774 151.656 750.582 152.2C750.39 152.744 750.118 153.256 749.766 153.736C749.446 154.184 749.046 154.6 748.566 154.984C748.118 155.336 747.606 155.608 747.03 155.8C748.598 156.184 749.782 156.92 750.582 158.008C751.414 159.064 751.83 160.312 751.83 161.752C751.83 163.96 751.094 165.72 749.622 167.032C748.15 168.344 745.846 169 742.71 169H730.71ZM734.934 165.256H742.71C744.534 165.256 745.798 164.936 746.502 164.296C747.238 163.656 747.606 162.744 747.606 161.56C747.606 160.344 747.238 159.416 746.502 158.776C745.798 158.104 744.534 157.768 742.71 157.768H734.934V165.256ZM734.934 154.312H741.75C742.678 154.312 743.446 154.232 744.054 154.072C744.694 153.912 745.206 153.672 745.59 153.352C745.974 153.032 746.246 152.664 746.406 152.248C746.566 151.8 746.646 151.288 746.646 150.712C746.646 150.168 746.566 149.688 746.406 149.272C746.246 148.856 745.974 148.504 745.59 148.216C745.206 147.928 744.694 147.704 744.054 147.544C743.446 147.384 742.678 147.304 741.75 147.304H734.934V154.312ZM764.618 169.48C763.242 169.48 762.01 169.288 760.922 168.904C759.834 168.488 758.922 167.928 758.186 167.224C757.45 166.52 756.89 165.688 756.506 164.728C756.122 163.768 755.93 162.712 755.93 161.56C755.93 160.312 756.122 159.24 756.506 158.344C756.89 157.416 757.434 156.664 758.138 156.088C758.874 155.512 759.786 155.096 760.874 154.84C761.962 154.552 763.194 154.408 764.57 154.408H772.826V152.68C772.826 151.592 772.698 150.68 772.442 149.944C772.218 149.208 771.85 148.616 771.338 148.168C770.858 147.72 770.25 147.4 769.514 147.208C768.778 147.016 767.93 146.92 766.97 146.92C766.074 146.92 765.29 147.016 764.618 147.208C763.978 147.4 763.434 147.656 762.986 147.976C762.57 148.264 762.25 148.616 762.026 149.032C761.802 149.416 761.658 149.832 761.594 150.28H757.37C757.434 149.256 757.706 148.312 758.186 147.448C758.698 146.552 759.37 145.784 760.202 145.144C761.066 144.504 762.09 144.008 763.274 143.656C764.458 143.272 765.77 143.08 767.21 143.08C768.714 143.08 770.074 143.256 771.29 143.608C772.506 143.928 773.53 144.456 774.362 145.192C775.226 145.928 775.882 146.872 776.33 148.024C776.81 149.176 777.05 150.568 777.05 152.2V162.52C777.05 163.864 777.05 165.048 777.05 166.072C777.082 167.064 777.162 168.04 777.29 169H773.594C773.498 168.264 773.434 167.576 773.402 166.936C773.37 166.264 773.354 165.512 773.354 164.68C773.034 165.352 772.586 165.976 772.01 166.552C771.466 167.128 770.826 167.64 770.09 168.088C769.354 168.504 768.522 168.84 767.594 169.096C766.666 169.352 765.674 169.48 764.618 169.48ZM765.53 165.64C766.522 165.64 767.45 165.512 768.314 165.256C769.21 164.968 769.994 164.568 770.666 164.056C771.338 163.512 771.866 162.856 772.25 162.088C772.634 161.288 772.826 160.392 772.826 159.4V157.672H765.29C763.722 157.672 762.49 157.992 761.594 158.632C760.698 159.24 760.25 160.216 760.25 161.56C760.25 162.744 760.666 163.72 761.498 164.488C762.362 165.256 763.706 165.64 765.53 165.64ZM784.031 169V143.56H788.543L797.615 159.4L806.687 143.56H810.911V169H806.687V150.52L799.151 163.48H795.791L788.255 150.52V169H784.031ZM818.098 169V143.56H822.322V162.76L835.474 143.56H839.698V169H835.474V149.8L822.322 169H818.098Z" fill="white"/>
<path d="M893 129.625C878.987 129.625 867.625 140.987 867.625 155C867.625 169.013 878.987 180.375 893 180.375C907.013 180.375 918.375 169.013 918.375 155C918.375 140.987 907.013 129.625 893 129.625ZM902.368 164.64L898.63 164.623L893 157.911L887.376 164.618L883.632 164.635C883.382 164.635 883.179 164.436 883.179 164.181C883.179 164.074 883.218 163.972 883.286 163.887L890.655 155.108L883.286 146.334C883.218 146.251 883.18 146.147 883.179 146.039C883.179 145.79 883.382 145.586 883.632 145.586L887.376 145.603L893 152.315L898.624 145.609L902.363 145.592C902.612 145.592 902.816 145.79 902.816 146.045C902.816 146.153 902.776 146.255 902.708 146.34L895.351 155.113L902.714 163.893C902.782 163.978 902.821 164.079 902.821 164.187C902.821 164.436 902.618 164.64 902.368 164.64Z" fill="white"/>
<rect x="2" y="102" width="1604" height="104" stroke="#303035" stroke-width="4"/>
</svg>
