<svg width="866" height="760" viewBox="0 0 866 760" fill="none" xmlns="http://www.w3.org/2000/svg">
<rect width="301" height="100" transform="translate(80)" fill="#30BCED"/>
<path d="M125.936 65.48C124.304 65.48 122.784 65.224 121.376 64.712C119.968 64.168 118.752 63.368 117.728 62.312C116.704 61.224 115.888 59.864 115.28 58.232C114.704 56.6 114.416 54.696 114.416 52.52V51.56C114.416 49.48 114.736 47.672 115.376 46.136C116.016 44.568 116.864 43.272 117.92 42.248C118.976 41.192 120.192 40.408 121.568 39.896C122.976 39.352 124.432 39.08 125.936 39.08C127.44 39.08 128.784 39.288 129.968 39.704C131.184 40.12 132.224 40.696 133.088 41.432C133.984 42.168 134.704 43.032 135.248 44.024C135.824 45.016 136.24 46.088 136.496 47.24H132.176C131.92 46.632 131.616 46.072 131.264 45.56C130.944 45.016 130.528 44.552 130.016 44.168C129.536 43.784 128.96 43.48 128.288 43.256C127.648 43.032 126.864 42.92 125.936 42.92C125.008 42.92 124.112 43.096 123.248 43.448C122.384 43.768 121.616 44.28 120.944 44.984C120.272 45.656 119.728 46.536 119.312 47.624C118.928 48.712 118.736 50.024 118.736 51.56V52.52C118.736 54.152 118.928 55.56 119.312 56.744C119.728 57.896 120.272 58.84 120.944 59.576C121.616 60.28 122.384 60.808 123.248 61.16C124.112 61.48 125.008 61.64 125.936 61.64C127.504 61.64 128.816 61.256 129.872 60.488C130.96 59.72 131.728 58.664 132.176 57.32H136.496C136.208 58.568 135.744 59.704 135.104 60.728C134.464 61.72 133.68 62.568 132.752 63.272C131.856 63.976 130.832 64.52 129.68 64.904C128.528 65.288 127.28 65.48 125.936 65.48ZM152.332 65.48C150.7 65.48 149.148 65.224 147.676 64.712C146.204 64.168 144.908 63.368 143.788 62.312C142.668 61.224 141.772 59.864 141.1 58.232C140.428 56.6 140.092 54.696 140.092 52.52V51.56C140.092 49.48 140.428 47.672 141.1 46.136C141.772 44.568 142.668 43.272 143.788 42.248C144.908 41.192 146.204 40.408 147.676 39.896C149.148 39.352 150.7 39.08 152.332 39.08C153.964 39.08 155.516 39.352 156.988 39.896C158.46 40.408 159.756 41.192 160.876 42.248C161.996 43.272 162.892 44.568 163.564 46.136C164.236 47.672 164.572 49.48 164.572 51.56V52.52C164.572 54.696 164.236 56.6 163.564 58.232C162.892 59.864 161.996 61.224 160.876 62.312C159.756 63.368 158.46 64.168 156.988 64.712C155.516 65.224 153.964 65.48 152.332 65.48ZM152.332 61.64C153.292 61.64 154.252 61.48 155.212 61.16C156.172 60.808 157.02 60.28 157.756 59.576C158.492 58.84 159.084 57.896 159.532 56.744C160.012 55.592 160.252 54.184 160.252 52.52V51.56C160.252 50.024 160.012 48.712 159.532 47.624C159.084 46.536 158.492 45.64 157.756 44.936C157.02 44.232 156.172 43.72 155.212 43.4C154.252 43.08 153.292 42.92 152.332 42.92C151.372 42.92 150.412 43.08 149.452 43.4C148.492 43.72 147.644 44.232 146.908 44.936C146.172 45.64 145.564 46.536 145.084 47.624C144.636 48.712 144.412 50.024 144.412 51.56V52.52C144.412 54.184 144.636 55.592 145.084 56.744C145.564 57.896 146.172 58.84 146.908 59.576C147.644 60.28 148.492 60.808 149.452 61.16C150.412 61.48 151.372 61.64 152.332 61.64ZM170.073 65V39.56H174.297V50.216H177.657L187.161 39.56H192.153L181.113 51.752L192.633 65H187.257L177.657 53.864H174.297V65H170.073ZM197.203 74.6V39.56H201.139V44.36C201.587 43.496 202.115 42.744 202.723 42.104C203.331 41.432 204.019 40.872 204.787 40.424C205.555 39.976 206.387 39.64 207.283 39.416C208.179 39.192 209.139 39.08 210.163 39.08C211.763 39.08 213.203 39.352 214.483 39.896C215.795 40.408 216.915 41.192 217.843 42.248C218.771 43.272 219.475 44.568 219.955 46.136C220.467 47.672 220.723 49.48 220.723 51.56V52.52C220.723 54.664 220.467 56.552 219.955 58.184C219.443 59.816 218.723 61.176 217.795 62.264C216.867 63.32 215.747 64.12 214.435 64.664C213.155 65.208 211.731 65.48 210.163 65.48C207.987 65.48 206.163 65 204.691 64.04C203.251 63.08 202.163 61.88 201.427 60.44V74.6H197.203ZM209.203 61.736C210.227 61.736 211.187 61.544 212.083 61.16C212.979 60.744 213.747 60.152 214.387 59.384C215.059 58.616 215.571 57.656 215.923 56.504C216.307 55.352 216.499 54.024 216.499 52.52V51.56C216.499 50.152 216.307 48.92 215.923 47.864C215.571 46.776 215.059 45.864 214.387 45.128C213.747 44.36 212.979 43.784 212.083 43.4C211.187 43.016 210.227 42.824 209.203 42.824C208.051 42.824 206.995 43.016 206.035 43.4C205.075 43.752 204.259 44.264 203.587 44.936C202.915 45.576 202.387 46.344 202.003 47.24C201.619 48.136 201.427 49.096 201.427 50.12V53.96C201.427 55.112 201.619 56.168 202.003 57.128C202.387 58.088 202.915 58.904 203.587 59.576C204.259 60.248 205.075 60.776 206.035 61.16C206.995 61.544 208.051 61.736 209.203 61.736ZM233.502 65.48C232.126 65.48 230.894 65.288 229.806 64.904C228.718 64.488 227.806 63.928 227.07 63.224C226.334 62.52 225.774 61.688 225.39 60.728C225.006 59.768 224.814 58.712 224.814 57.56C224.814 56.312 225.006 55.24 225.39 54.344C225.774 53.416 226.318 52.664 227.022 52.088C227.758 51.512 228.67 51.096 229.758 50.84C230.846 50.552 232.078 50.408 233.454 50.408H241.71V48.68C241.71 47.592 241.582 46.68 241.326 45.944C241.102 45.208 240.734 44.616 240.222 44.168C239.742 43.72 239.134 43.4 238.398 43.208C237.662 43.016 236.814 42.92 235.854 42.92C234.958 42.92 234.174 43.016 233.502 43.208C232.862 43.4 232.318 43.656 231.87 43.976C231.454 44.264 231.134 44.616 230.91 45.032C230.686 45.416 230.542 45.832 230.478 46.28H226.254C226.318 45.256 226.59 44.312 227.07 43.448C227.582 42.552 228.254 41.784 229.086 41.144C229.95 40.504 230.974 40.008 232.158 39.656C233.342 39.272 234.654 39.08 236.094 39.08C237.598 39.08 238.958 39.256 240.174 39.608C241.39 39.928 242.414 40.456 243.246 41.192C244.11 41.928 244.766 42.872 245.214 44.024C245.694 45.176 245.934 46.568 245.934 48.2V58.52C245.934 59.864 245.934 61.048 245.934 62.072C245.966 63.064 246.046 64.04 246.174 65H242.478C242.382 64.264 242.318 63.576 242.286 62.936C242.254 62.264 242.238 61.512 242.238 60.68C241.918 61.352 241.47 61.976 240.894 62.552C240.35 63.128 239.71 63.64 238.974 64.088C238.238 64.504 237.406 64.84 236.478 65.096C235.55 65.352 234.558 65.48 233.502 65.48ZM234.414 61.64C235.406 61.64 236.334 61.512 237.198 61.256C238.094 60.968 238.878 60.568 239.55 60.056C240.222 59.512 240.75 58.856 241.134 58.088C241.518 57.288 241.71 56.392 241.71 55.4V53.672H234.174C232.606 53.672 231.374 53.992 230.478 54.632C229.582 55.24 229.134 56.216 229.134 57.56C229.134 58.744 229.55 59.72 230.382 60.488C231.246 61.256 232.59 61.64 234.414 61.64ZM258.254 65V43.304H249.566V39.56H271.166V43.304H262.478V65H258.254ZM275.497 65V39.56H279.721V58.76L292.873 39.56H297.097V65H292.873V45.8L279.721 65H275.497ZM310.122 65V43.304H301.434V39.56H323.034V43.304H314.346V65H310.122ZM327.365 65V39.56H331.589V49.16H337.685C339.285 49.16 340.661 49.352 341.813 49.736C342.997 50.088 343.973 50.6 344.741 51.272C345.509 51.944 346.085 52.776 346.469 53.768C346.853 54.76 347.045 55.88 347.045 57.128C347.045 58.344 346.853 59.448 346.469 60.44C346.085 61.4 345.509 62.216 344.741 62.888C343.973 63.56 342.997 64.088 341.813 64.472C340.661 64.824 339.285 65 337.685 65H327.365ZM331.589 61.256H337.445C339.429 61.256 340.821 60.904 341.621 60.2C342.421 59.496 342.821 58.456 342.821 57.08C342.821 55.704 342.421 54.664 341.621 53.96C340.821 53.256 339.429 52.904 337.445 52.904H331.589V61.256Z" fill="white"/>
<rect width="281" height="100" transform="translate(80 132)" fill="#30BCED"/>
<path d="M119.318 207.08C119.062 207.08 118.822 207.064 118.598 207.032C118.374 207.032 118.134 207 117.878 206.936V203.096C118.134 203.16 118.374 203.192 118.598 203.192C118.822 203.224 119.062 203.24 119.318 203.24C119.798 203.24 120.214 203.16 120.566 203C120.918 202.84 121.254 202.536 121.574 202.088C121.926 201.64 122.278 201 122.63 200.168C122.982 199.368 123.398 198.312 123.878 197L113.078 171.56H117.782L126.038 192.2L133.526 171.56H138.038L128.438 197C127.766 198.792 127.126 200.328 126.518 201.608C125.91 202.888 125.254 203.928 124.55 204.728C123.878 205.56 123.126 206.152 122.294 206.504C121.462 206.888 120.47 207.08 119.318 207.08ZM138.004 203V193.256H141.124C141.476 192.776 141.796 192.04 142.084 191.048C142.372 190.056 142.628 188.888 142.852 187.544C143.076 186.2 143.236 184.744 143.332 183.176C143.46 181.576 143.524 179.944 143.524 178.28V171.56H161.284V193.256H164.884V203H160.852V197H142.036V203H138.004ZM145.444 193.256H157.06V175.304H147.652V179.24C147.652 180.584 147.604 181.928 147.508 183.272C147.412 184.584 147.268 185.848 147.076 187.064C146.884 188.248 146.644 189.368 146.356 190.424C146.1 191.48 145.796 192.424 145.444 193.256ZM169.204 197.48C169.076 197.48 168.948 197.48 168.82 197.48C168.724 197.48 168.612 197.464 168.484 197.432C168.356 197.432 168.228 197.416 168.1 197.384C168.004 197.384 167.892 197.368 167.764 197.336V193.112C167.828 193.144 167.924 193.16 168.052 193.16C168.18 193.16 168.324 193.16 168.484 193.16C169.22 193.16 169.844 192.936 170.356 192.488C170.868 192.04 171.284 191.256 171.604 190.136C171.924 189.016 172.164 187.496 172.324 185.576C172.484 183.656 172.564 181.224 172.564 178.28V171.56H190.804V197H186.58V175.304H176.788V179.24C176.788 182.792 176.628 185.736 176.308 188.072C175.988 190.408 175.508 192.28 174.868 193.688C174.26 195.064 173.476 196.04 172.516 196.616C171.556 197.192 170.452 197.48 169.204 197.48ZM198.002 197V171.56H202.226V190.76L215.378 171.56H219.602V197H215.378V177.8L202.226 197H198.002ZM226.819 197V171.56H231.043V182.168H244.195V171.56H248.419V197H244.195V185.912H231.043V197H226.819ZM255.636 197V171.56H259.86V190.76L273.012 171.56H277.236V197H273.012V177.8L259.86 197H255.636ZM290.26 197V175.304H281.572V171.56H303.172V175.304H294.484V197H290.26ZM307.504 197V171.56H311.728V181.16H317.824C319.424 181.16 320.8 181.352 321.952 181.736C323.136 182.088 324.112 182.6 324.88 183.272C325.648 183.944 326.224 184.776 326.608 185.768C326.992 186.76 327.184 187.88 327.184 189.128C327.184 190.344 326.992 191.448 326.608 192.44C326.224 193.4 325.648 194.216 324.88 194.888C324.112 195.56 323.136 196.088 321.952 196.472C320.8 196.824 319.424 197 317.824 197H307.504ZM311.728 193.256H317.584C319.568 193.256 320.96 192.904 321.76 192.2C322.56 191.496 322.96 190.456 322.96 189.08C322.96 187.704 322.56 186.664 321.76 185.96C320.96 185.256 319.568 184.904 317.584 184.904H311.728V193.256Z" fill="white"/>
<g filter="url(#filter0_d_303_433)">
<rect width="479" height="100" transform="translate(80 264)" fill="#30BCED"/>
<path d="M115.903 329V303.56H137.023V329H132.799V307.304H120.127V329H115.903ZM154.764 329.48C153.132 329.48 151.58 329.224 150.108 328.712C148.636 328.2 147.34 327.416 146.22 326.36C145.1 325.272 144.204 323.912 143.532 322.28C142.86 320.648 142.524 318.728 142.524 316.52V315.56C142.524 313.448 142.844 311.624 143.484 310.088C144.124 308.52 144.972 307.224 146.028 306.2C147.116 305.144 148.364 304.36 149.772 303.848C151.212 303.336 152.716 303.08 154.284 303.08C158.028 303.08 160.924 304.104 162.972 306.152C165.02 308.2 166.044 311.096 166.044 314.84V317.528H146.748C146.748 319 146.988 320.264 147.468 321.32C147.948 322.344 148.572 323.176 149.34 323.816C150.108 324.456 150.956 324.92 151.884 325.208C152.844 325.496 153.804 325.64 154.764 325.64C156.684 325.64 158.156 325.32 159.18 324.68C160.236 324.04 160.988 323.16 161.436 322.04H165.564C165.308 323.256 164.844 324.328 164.172 325.256C163.532 326.184 162.732 326.968 161.772 327.608C160.844 328.216 159.772 328.68 158.556 329C157.372 329.32 156.108 329.48 154.764 329.48ZM146.748 314.072H162.06C162.028 312.76 161.804 311.656 161.388 310.76C161.004 309.832 160.476 309.096 159.804 308.552C159.132 307.976 158.332 307.56 157.404 307.304C156.508 307.048 155.548 306.92 154.524 306.92C153.532 306.92 152.572 307.064 151.644 307.352C150.716 307.608 149.884 308.04 149.148 308.648C148.444 309.224 147.868 309.96 147.42 310.856C146.972 311.752 146.748 312.824 146.748 314.072ZM171.568 338.6V303.56H175.504V308.36C175.952 307.496 176.48 306.744 177.088 306.104C177.696 305.432 178.384 304.872 179.152 304.424C179.92 303.976 180.752 303.64 181.648 303.416C182.544 303.192 183.504 303.08 184.528 303.08C186.128 303.08 187.568 303.352 188.848 303.896C190.16 304.408 191.28 305.192 192.208 306.248C193.136 307.272 193.84 308.568 194.32 310.136C194.832 311.672 195.088 313.48 195.088 315.56V316.52C195.088 318.664 194.832 320.552 194.32 322.184C193.808 323.816 193.088 325.176 192.16 326.264C191.232 327.32 190.112 328.12 188.8 328.664C187.52 329.208 186.096 329.48 184.528 329.48C182.352 329.48 180.528 329 179.056 328.04C177.616 327.08 176.528 325.88 175.792 324.44V338.6H171.568ZM183.568 325.736C184.592 325.736 185.552 325.544 186.448 325.16C187.344 324.744 188.112 324.152 188.752 323.384C189.424 322.616 189.936 321.656 190.288 320.504C190.672 319.352 190.864 318.024 190.864 316.52V315.56C190.864 314.152 190.672 312.92 190.288 311.864C189.936 310.776 189.424 309.864 188.752 309.128C188.112 308.36 187.344 307.784 186.448 307.4C185.552 307.016 184.592 306.824 183.568 306.824C182.416 306.824 181.36 307.016 180.4 307.4C179.44 307.752 178.624 308.264 177.952 308.936C177.28 309.576 176.752 310.344 176.368 311.24C175.984 312.136 175.792 313.096 175.792 314.12V317.96C175.792 319.112 175.984 320.168 176.368 321.128C176.752 322.088 177.28 322.904 177.952 323.576C178.624 324.248 179.44 324.776 180.4 325.16C181.36 325.544 182.416 325.736 183.568 325.736ZM211.179 329.48C209.547 329.48 207.995 329.224 206.523 328.712C205.051 328.2 203.755 327.416 202.635 326.36C201.515 325.272 200.619 323.912 199.947 322.28C199.275 320.648 198.939 318.728 198.939 316.52V315.56C198.939 313.448 199.259 311.624 199.899 310.088C200.539 308.52 201.387 307.224 202.443 306.2C203.531 305.144 204.779 304.36 206.187 303.848C207.627 303.336 209.131 303.08 210.699 303.08C214.443 303.08 217.339 304.104 219.387 306.152C221.435 308.2 222.459 311.096 222.459 314.84V317.528H203.163C203.163 319 203.403 320.264 203.883 321.32C204.363 322.344 204.987 323.176 205.755 323.816C206.523 324.456 207.371 324.92 208.299 325.208C209.259 325.496 210.219 325.64 211.179 325.64C213.099 325.64 214.571 325.32 215.595 324.68C216.651 324.04 217.403 323.16 217.851 322.04H221.979C221.723 323.256 221.259 324.328 220.587 325.256C219.947 326.184 219.147 326.968 218.187 327.608C217.259 328.216 216.187 328.68 214.971 329C213.787 329.32 212.523 329.48 211.179 329.48ZM203.163 314.072H218.475C218.443 312.76 218.219 311.656 217.803 310.76C217.419 309.832 216.891 309.096 216.219 308.552C215.547 307.976 214.747 307.56 213.819 307.304C212.923 307.048 211.963 306.92 210.939 306.92C209.947 306.92 208.987 307.064 208.059 307.352C207.131 307.608 206.299 308.04 205.563 308.648C204.859 309.224 204.283 309.96 203.835 310.856C203.387 311.752 203.163 312.824 203.163 314.072ZM239.791 338.6V329.48C237.583 329.48 235.631 329.192 233.935 328.616C232.271 328.04 230.863 327.208 229.711 326.12C228.591 325.032 227.743 323.688 227.167 322.088C226.591 320.456 226.303 318.616 226.303 316.568V315.608C226.303 313.624 226.591 311.864 227.167 310.328C227.743 308.792 228.591 307.48 229.711 306.392C230.863 305.304 232.271 304.488 233.935 303.944C235.631 303.368 237.583 303.08 239.791 303.08V295.4H244.015V303.08C246.223 303.08 248.159 303.368 249.823 303.944C251.519 304.488 252.927 305.304 254.047 306.392C255.199 307.48 256.063 308.792 256.639 310.328C257.215 311.864 257.503 313.624 257.503 315.608V316.568C257.503 318.616 257.215 320.456 256.639 322.088C256.063 323.688 255.199 325.032 254.047 326.12C252.927 327.208 251.519 328.04 249.823 328.616C248.159 329.192 246.223 329.48 244.015 329.48V338.6H239.791ZM243.967 325.64C247.167 325.64 249.503 324.904 250.975 323.432C252.447 321.96 253.183 319.672 253.183 316.568V315.608C253.183 312.696 252.447 310.52 250.975 309.08C249.503 307.64 247.167 306.92 243.967 306.92V325.64ZM239.839 325.64V306.92C236.639 306.92 234.303 307.64 232.831 309.08C231.359 310.52 230.623 312.696 230.623 315.608V316.568C230.623 319.672 231.359 321.96 232.831 323.432C234.303 324.904 236.639 325.64 239.839 325.64ZM263.034 338.6V303.56H266.97V308.36C267.418 307.496 267.946 306.744 268.554 306.104C269.162 305.432 269.85 304.872 270.618 304.424C271.386 303.976 272.218 303.64 273.114 303.416C274.01 303.192 274.97 303.08 275.994 303.08C277.594 303.08 279.034 303.352 280.314 303.896C281.626 304.408 282.746 305.192 283.674 306.248C284.602 307.272 285.306 308.568 285.786 310.136C286.298 311.672 286.554 313.48 286.554 315.56V316.52C286.554 318.664 286.298 320.552 285.786 322.184C285.274 323.816 284.554 325.176 283.626 326.264C282.698 327.32 281.578 328.12 280.266 328.664C278.986 329.208 277.562 329.48 275.994 329.48C273.818 329.48 271.994 329 270.522 328.04C269.082 327.08 267.994 325.88 267.258 324.44V338.6H263.034ZM275.034 325.736C276.058 325.736 277.018 325.544 277.914 325.16C278.81 324.744 279.578 324.152 280.218 323.384C280.89 322.616 281.402 321.656 281.754 320.504C282.138 319.352 282.33 318.024 282.33 316.52V315.56C282.33 314.152 282.138 312.92 281.754 311.864C281.402 310.776 280.89 309.864 280.218 309.128C279.578 308.36 278.81 307.784 277.914 307.4C277.018 307.016 276.058 306.824 275.034 306.824C273.882 306.824 272.826 307.016 271.866 307.4C270.906 307.752 270.09 308.264 269.418 308.936C268.746 309.576 268.218 310.344 267.834 311.24C267.45 312.136 267.258 313.096 267.258 314.12V317.96C267.258 319.112 267.45 320.168 267.834 321.128C268.218 322.088 268.746 322.904 269.418 323.576C270.09 324.248 270.906 324.776 271.866 325.16C272.826 325.544 273.882 325.736 275.034 325.736ZM299.334 329.48C297.958 329.48 296.726 329.288 295.638 328.904C294.55 328.488 293.638 327.928 292.902 327.224C292.166 326.52 291.606 325.688 291.222 324.728C290.838 323.768 290.646 322.712 290.646 321.56C290.646 320.312 290.838 319.24 291.222 318.344C291.606 317.416 292.15 316.664 292.854 316.088C293.59 315.512 294.502 315.096 295.59 314.84C296.678 314.552 297.91 314.408 299.286 314.408H307.542V312.68C307.542 311.592 307.414 310.68 307.158 309.944C306.934 309.208 306.566 308.616 306.054 308.168C305.574 307.72 304.966 307.4 304.23 307.208C303.494 307.016 302.646 306.92 301.686 306.92C300.79 306.92 300.006 307.016 299.334 307.208C298.694 307.4 298.15 307.656 297.702 307.976C297.286 308.264 296.966 308.616 296.742 309.032C296.518 309.416 296.374 309.832 296.31 310.28H292.086C292.15 309.256 292.422 308.312 292.902 307.448C293.414 306.552 294.086 305.784 294.918 305.144C295.782 304.504 296.806 304.008 297.99 303.656C299.174 303.272 300.486 303.08 301.926 303.08C303.43 303.08 304.79 303.256 306.006 303.608C307.222 303.928 308.246 304.456 309.078 305.192C309.942 305.928 310.598 306.872 311.046 308.024C311.526 309.176 311.766 310.568 311.766 312.2V322.52C311.766 323.864 311.766 325.048 311.766 326.072C311.798 327.064 311.878 328.04 312.006 329H308.31C308.214 328.264 308.15 327.576 308.118 326.936C308.086 326.264 308.07 325.512 308.07 324.68C307.75 325.352 307.302 325.976 306.726 326.552C306.182 327.128 305.542 327.64 304.806 328.088C304.07 328.504 303.238 328.84 302.31 329.096C301.382 329.352 300.39 329.48 299.334 329.48ZM300.246 325.64C301.238 325.64 302.166 325.512 303.03 325.256C303.926 324.968 304.71 324.568 305.382 324.056C306.054 323.512 306.582 322.856 306.966 322.088C307.35 321.288 307.542 320.392 307.542 319.4V317.672H300.006C298.438 317.672 297.206 317.992 296.31 318.632C295.414 319.24 294.966 320.216 294.966 321.56C294.966 322.744 295.382 323.72 296.214 324.488C297.078 325.256 298.422 325.64 300.246 325.64ZM327.386 329.48C325.786 329.48 324.346 329.304 323.066 328.952C321.818 328.6 320.746 328.104 319.85 327.464C318.954 326.792 318.25 325.992 317.738 325.064C317.226 324.104 316.922 323.016 316.826 321.8H321.05C321.146 322.408 321.354 322.952 321.674 323.432C322.026 323.912 322.474 324.328 323.018 324.68C323.562 325 324.202 325.24 324.938 325.4C325.674 325.56 326.49 325.64 327.386 325.64C329.594 325.64 331.194 325.272 332.186 324.536C333.21 323.768 333.722 322.856 333.722 321.8C333.722 320.552 333.306 319.576 332.474 318.872C331.642 318.136 330.202 317.768 328.154 317.768H323.786V314.312H327.866C329.626 314.312 330.874 313.976 331.61 313.304C332.378 312.632 332.762 311.688 332.762 310.472C332.762 309.512 332.314 308.68 331.418 307.976C330.554 307.272 329.21 306.92 327.386 306.92C325.434 306.92 324.01 307.24 323.114 307.88C322.25 308.488 321.722 309.368 321.53 310.52H317.306C317.402 309.464 317.69 308.488 318.17 307.592C318.682 306.664 319.37 305.864 320.234 305.192C321.098 304.52 322.122 304.008 323.306 303.656C324.522 303.272 325.882 303.08 327.386 303.08C329.018 303.08 330.426 303.272 331.61 303.656C332.826 304.008 333.834 304.52 334.634 305.192C335.434 305.832 336.026 306.6 336.41 307.496C336.794 308.392 336.986 309.384 336.986 310.472C336.986 311.688 336.682 312.76 336.074 313.688C335.466 314.584 334.49 315.288 333.146 315.8C334.042 316.024 334.794 316.344 335.402 316.76C336.01 317.144 336.506 317.592 336.89 318.104C337.274 318.616 337.546 319.192 337.706 319.832C337.866 320.44 337.946 321.096 337.946 321.8C337.946 322.856 337.722 323.848 337.274 324.776C336.826 325.704 336.154 326.52 335.258 327.224C334.394 327.896 333.29 328.44 331.946 328.856C330.634 329.272 329.114 329.48 327.386 329.48ZM343.485 329V303.56H347.709V322.76L360.861 303.56H365.085V329H360.861V309.8L347.709 329H343.485ZM372.302 338.6V303.56H376.238V308.36C376.686 307.496 377.214 306.744 377.822 306.104C378.43 305.432 379.118 304.872 379.886 304.424C380.654 303.976 381.486 303.64 382.382 303.416C383.278 303.192 384.238 303.08 385.262 303.08C386.862 303.08 388.302 303.352 389.582 303.896C390.894 304.408 392.014 305.192 392.942 306.248C393.87 307.272 394.574 308.568 395.054 310.136C395.566 311.672 395.822 313.48 395.822 315.56V316.52C395.822 318.664 395.566 320.552 395.054 322.184C394.542 323.816 393.822 325.176 392.894 326.264C391.966 327.32 390.846 328.12 389.534 328.664C388.254 329.208 386.83 329.48 385.262 329.48C383.086 329.48 381.262 329 379.79 328.04C378.35 327.08 377.262 325.88 376.526 324.44V338.6H372.302ZM384.302 325.736C385.326 325.736 386.286 325.544 387.182 325.16C388.078 324.744 388.846 324.152 389.486 323.384C390.158 322.616 390.67 321.656 391.022 320.504C391.406 319.352 391.598 318.024 391.598 316.52V315.56C391.598 314.152 391.406 312.92 391.022 311.864C390.67 310.776 390.158 309.864 389.486 309.128C388.846 308.36 388.078 307.784 387.182 307.4C386.286 307.016 385.326 306.824 384.302 306.824C383.15 306.824 382.094 307.016 381.134 307.4C380.174 307.752 379.358 308.264 378.686 308.936C378.014 309.576 377.486 310.344 377.102 311.24C376.718 312.136 376.526 313.096 376.526 314.12V317.96C376.526 319.112 376.718 320.168 377.102 321.128C377.486 322.088 378.014 322.904 378.686 323.576C379.358 324.248 380.174 324.776 381.134 325.16C382.094 325.544 383.15 325.736 384.302 325.736ZM411.913 329.48C410.281 329.48 408.729 329.224 407.257 328.712C405.785 328.168 404.489 327.368 403.369 326.312C402.249 325.224 401.353 323.864 400.681 322.232C400.009 320.6 399.673 318.696 399.673 316.52V315.56C399.673 313.48 400.009 311.672 400.681 310.136C401.353 308.568 402.249 307.272 403.369 306.248C404.489 305.192 405.785 304.408 407.257 303.896C408.729 303.352 410.281 303.08 411.913 303.08C413.545 303.08 415.097 303.352 416.569 303.896C418.041 304.408 419.337 305.192 420.457 306.248C421.577 307.272 422.473 308.568 423.145 310.136C423.817 311.672 424.153 313.48 424.153 315.56V316.52C424.153 318.696 423.817 320.6 423.145 322.232C422.473 323.864 421.577 325.224 420.457 326.312C419.337 327.368 418.041 328.168 416.569 328.712C415.097 329.224 413.545 329.48 411.913 329.48ZM411.913 325.64C412.873 325.64 413.833 325.48 414.793 325.16C415.753 324.808 416.601 324.28 417.337 323.576C418.073 322.84 418.665 321.896 419.113 320.744C419.593 319.592 419.833 318.184 419.833 316.52V315.56C419.833 314.024 419.593 312.712 419.113 311.624C418.665 310.536 418.073 309.64 417.337 308.936C416.601 308.232 415.753 307.72 414.793 307.4C413.833 307.08 412.873 306.92 411.913 306.92C410.953 306.92 409.993 307.08 409.033 307.4C408.073 307.72 407.225 308.232 406.489 308.936C405.753 309.64 405.145 310.536 404.665 311.624C404.217 312.712 403.993 314.024 403.993 315.56V316.52C403.993 318.184 404.217 319.592 404.665 320.744C405.145 321.896 405.753 322.84 406.489 323.576C407.225 324.28 408.073 324.808 409.033 325.16C409.993 325.48 410.953 325.64 411.913 325.64ZM429.654 329V303.56H440.694C442.262 303.56 443.622 303.736 444.774 304.088C445.926 304.408 446.87 304.888 447.606 305.528C448.342 306.136 448.886 306.872 449.238 307.736C449.622 308.568 449.814 309.496 449.814 310.52C449.814 311.096 449.718 311.656 449.526 312.2C449.334 312.744 449.062 313.256 448.71 313.736C448.39 314.184 447.99 314.6 447.51 314.984C447.062 315.336 446.55 315.608 445.974 315.8C447.542 316.184 448.726 316.92 449.526 318.008C450.358 319.064 450.774 320.312 450.774 321.752C450.774 323.96 450.038 325.72 448.566 327.032C447.094 328.344 444.79 329 441.654 329H429.654ZM433.878 325.256H441.654C443.478 325.256 444.742 324.936 445.446 324.296C446.182 323.656 446.55 322.744 446.55 321.56C446.55 320.344 446.182 319.416 445.446 318.776C444.742 318.104 443.478 317.768 441.654 317.768H433.878V325.256ZM433.878 314.312H440.694C441.622 314.312 442.39 314.232 442.998 314.072C443.638 313.912 444.15 313.672 444.534 313.352C444.918 313.032 445.19 312.664 445.35 312.248C445.51 311.8 445.59 311.288 445.59 310.712C445.59 310.168 445.51 309.688 445.35 309.272C445.19 308.856 444.918 308.504 444.534 308.216C444.15 307.928 443.638 307.704 442.998 307.544C442.39 307.384 441.622 307.304 440.694 307.304H433.878V314.312ZM463.563 329.48C462.187 329.48 460.955 329.288 459.867 328.904C458.779 328.488 457.867 327.928 457.131 327.224C456.395 326.52 455.835 325.688 455.451 324.728C455.067 323.768 454.875 322.712 454.875 321.56C454.875 320.312 455.067 319.24 455.451 318.344C455.835 317.416 456.379 316.664 457.083 316.088C457.819 315.512 458.731 315.096 459.819 314.84C460.907 314.552 462.139 314.408 463.515 314.408H471.771V312.68C471.771 311.592 471.643 310.68 471.387 309.944C471.163 309.208 470.795 308.616 470.283 308.168C469.803 307.72 469.195 307.4 468.459 307.208C467.723 307.016 466.875 306.92 465.915 306.92C465.019 306.92 464.235 307.016 463.563 307.208C462.923 307.4 462.379 307.656 461.931 307.976C461.515 308.264 461.195 308.616 460.971 309.032C460.747 309.416 460.603 309.832 460.539 310.28H456.315C456.379 309.256 456.651 308.312 457.131 307.448C457.643 306.552 458.315 305.784 459.147 305.144C460.011 304.504 461.035 304.008 462.219 303.656C463.403 303.272 464.715 303.08 466.155 303.08C467.659 303.08 469.019 303.256 470.235 303.608C471.451 303.928 472.475 304.456 473.307 305.192C474.171 305.928 474.827 306.872 475.275 308.024C475.755 309.176 475.995 310.568 475.995 312.2V322.52C475.995 323.864 475.995 325.048 475.995 326.072C476.027 327.064 476.107 328.04 476.235 329H472.539C472.443 328.264 472.379 327.576 472.347 326.936C472.315 326.264 472.299 325.512 472.299 324.68C471.979 325.352 471.531 325.976 470.955 326.552C470.411 327.128 469.771 327.64 469.035 328.088C468.299 328.504 467.467 328.84 466.539 329.096C465.611 329.352 464.619 329.48 463.563 329.48ZM464.475 325.64C465.467 325.64 466.395 325.512 467.259 325.256C468.155 324.968 468.939 324.568 469.611 324.056C470.283 323.512 470.811 322.856 471.195 322.088C471.579 321.288 471.771 320.392 471.771 319.4V317.672H464.235C462.667 317.672 461.435 317.992 460.539 318.632C459.643 319.24 459.195 320.216 459.195 321.56C459.195 322.744 459.611 323.72 460.443 324.488C461.307 325.256 462.651 325.64 464.475 325.64ZM488.315 329V307.304H479.627V303.56H501.227V307.304H492.539V329H488.315ZM505.558 329V303.56H509.782V313.16H515.878C517.478 313.16 518.854 313.352 520.006 313.736C521.19 314.088 522.166 314.6 522.934 315.272C523.702 315.944 524.278 316.776 524.662 317.768C525.046 318.76 525.238 319.88 525.238 321.128C525.238 322.344 525.046 323.448 524.662 324.44C524.278 325.4 523.702 326.216 522.934 326.888C522.166 327.56 521.19 328.088 520.006 328.472C518.854 328.824 517.478 329 515.878 329H505.558ZM509.782 325.256H515.638C517.622 325.256 519.014 324.904 519.814 324.2C520.614 323.496 521.014 322.456 521.014 321.08C521.014 319.704 520.614 318.664 519.814 317.96C519.014 317.256 517.622 316.904 515.638 316.904H509.782V325.256Z" fill="white"/>
</g>
<path fill-rule="evenodd" clip-rule="evenodd" d="M478.293 314.144C480.213 313.432 484.001 313.868 485.001 316.036C485.853 317.884 486.585 321 486.625 320.336C486.721 318.86 486.529 315.668 487.173 314C487.641 312.784 488.561 311.64 489.917 311.236C491.057 310.892 492.397 310.772 493.581 311.016C494.833 311.272 496.149 312.164 496.641 313.012C498.089 315.504 498.113 320.608 498.181 320.336C498.437 319.248 498.461 315.42 499.313 314C499.877 313.06 501.301 312.22 502.061 312.084C503.237 311.876 504.685 311.812 505.917 312.052C506.913 312.248 508.261 313.428 508.625 314C509.501 315.376 509.993 319.264 510.141 320.632C510.205 321.196 510.437 319.06 511.313 317.688C512.937 315.132 518.689 314.636 518.905 320.244C519.009 322.86 518.985 322.74 518.985 324.5C518.985 326.564 518.937 327.812 518.825 329.308C518.705 330.904 518.361 334.524 517.861 336.276C517.517 337.48 516.377 340.188 515.249 341.812C515.249 341.812 510.953 346.812 510.485 349.06C510.017 351.312 510.173 351.328 510.077 352.92C509.985 354.516 510.561 356.612 510.561 356.612C510.561 356.612 507.357 357.028 505.625 356.748C504.061 356.5 502.125 353.388 501.625 352.436C500.937 351.124 499.469 351.376 498.897 352.344C498.001 353.876 496.061 356.624 494.697 356.796C492.021 357.132 486.477 356.916 482.137 356.876C482.137 356.876 482.877 352.832 481.229 351.444C480.009 350.404 477.909 348.308 476.653 347.204L473.325 343.52C472.193 342.08 469.317 339.804 468.353 335.58C467.501 331.836 467.585 330 468.501 328.5C469.429 326.976 471.181 326.144 471.917 326C472.749 325.832 474.685 325.844 475.417 326.248C476.309 326.74 476.669 326.884 477.369 327.812C478.289 329.04 478.617 329.636 478.221 328.296C477.917 327.248 476.933 325.916 476.485 324.416C476.049 322.972 474.881 320.644 474.965 318.312C474.997 317.428 475.377 315.228 478.293 314.144Z" fill="white"/>
<path fill-rule="evenodd" clip-rule="evenodd" d="M478.293 314.144C480.213 313.432 484.001 313.868 485.001 316.036C485.853 317.884 486.585 321 486.625 320.336C486.721 318.86 486.529 315.668 487.173 314C487.641 312.784 488.561 311.64 489.917 311.236C491.057 310.892 492.397 310.772 493.581 311.016C494.833 311.272 496.149 312.164 496.641 313.012C498.089 315.504 498.113 320.608 498.181 320.336C498.437 319.248 498.461 315.42 499.313 314C499.877 313.06 501.301 312.22 502.061 312.084C503.237 311.876 504.685 311.812 505.917 312.052C506.913 312.248 508.261 313.428 508.625 314C509.501 315.376 509.993 319.264 510.141 320.632C510.205 321.196 510.437 319.06 511.313 317.688C512.937 315.132 518.689 314.636 518.905 320.244C519.009 322.86 518.985 322.74 518.985 324.5C518.985 326.564 518.937 327.812 518.825 329.308C518.705 330.904 518.361 334.524 517.861 336.276C517.517 337.48 516.377 340.188 515.249 341.812C515.249 341.812 510.953 346.812 510.485 349.06C510.017 351.312 510.173 351.328 510.077 352.92C509.985 354.516 510.561 356.612 510.561 356.612C510.561 356.612 507.357 357.028 505.625 356.748C504.061 356.5 502.125 353.388 501.625 352.436C500.937 351.124 499.469 351.376 498.897 352.344C498.001 353.876 496.061 356.624 494.697 356.796C492.021 357.132 486.477 356.916 482.137 356.876C482.137 356.876 482.877 352.832 481.229 351.444C480.009 350.404 477.909 348.308 476.653 347.204L473.325 343.52C472.193 342.08 469.317 339.804 468.353 335.58C467.501 331.836 467.585 330 468.501 328.5C469.429 326.976 471.181 326.144 471.917 326C472.749 325.832 474.685 325.844 475.417 326.248C476.309 326.74 476.669 326.884 477.369 327.812C478.289 329.04 478.617 329.636 478.221 328.296C477.917 327.248 476.933 325.916 476.485 324.416C476.049 322.972 474.881 320.644 474.965 318.312C474.997 317.428 475.377 315.228 478.293 314.144Z" stroke="black" stroke-width="1.5" stroke-linejoin="round"/>
<path d="M506.266 344.938V331.102" stroke="black" stroke-width="1.5" stroke-linecap="round"/>
<path d="M498.203 344.984L498.139 331.092" stroke="black" stroke-width="1.5" stroke-linecap="round"/>
<path d="M490.219 331.219L490.303 344.923" stroke="black" stroke-width="1.5" stroke-linecap="round"/>
<rect width="480" height="100" transform="translate(80 396)" fill="#30BCED"/>
<path d="M125.774 461.48C124.142 461.48 122.622 461.224 121.214 460.712C119.806 460.168 118.59 459.368 117.566 458.312C116.542 457.224 115.726 455.864 115.118 454.232C114.542 452.6 114.254 450.696 114.254 448.52V447.56C114.254 445.48 114.574 443.672 115.214 442.136C115.854 440.568 116.702 439.272 117.758 438.248C118.814 437.192 120.03 436.408 121.406 435.896C122.814 435.352 124.27 435.08 125.774 435.08C127.278 435.08 128.622 435.288 129.806 435.704C131.022 436.12 132.062 436.696 132.926 437.432C133.822 438.168 134.542 439.032 135.086 440.024C135.662 441.016 136.078 442.088 136.334 443.24H132.014C131.758 442.632 131.454 442.072 131.102 441.56C130.782 441.016 130.366 440.552 129.854 440.168C129.374 439.784 128.798 439.48 128.126 439.256C127.486 439.032 126.702 438.92 125.774 438.92C124.846 438.92 123.95 439.096 123.086 439.448C122.222 439.768 121.454 440.28 120.782 440.984C120.11 441.656 119.566 442.536 119.15 443.624C118.766 444.712 118.574 446.024 118.574 447.56V448.52C118.574 450.152 118.766 451.56 119.15 452.744C119.566 453.896 120.11 454.84 120.782 455.576C121.454 456.28 122.222 456.808 123.086 457.16C123.95 457.48 124.846 457.64 125.774 457.64C127.342 457.64 128.654 457.256 129.71 456.488C130.798 455.72 131.566 454.664 132.014 453.32H136.334C136.046 454.568 135.582 455.704 134.942 456.728C134.302 457.72 133.518 458.568 132.59 459.272C131.694 459.976 130.67 460.52 129.518 460.904C128.366 461.288 127.118 461.48 125.774 461.48ZM144.033 471.08C143.777 471.08 143.537 471.064 143.313 471.032C143.089 471.032 142.849 471 142.593 470.936V467.096C142.849 467.16 143.089 467.192 143.313 467.192C143.537 467.224 143.777 467.24 144.033 467.24C144.513 467.24 144.929 467.16 145.281 467C145.633 466.84 145.969 466.536 146.289 466.088C146.641 465.64 146.993 465 147.345 464.168C147.697 463.368 148.113 462.312 148.593 461L137.793 435.56H142.497L150.753 456.2L158.241 435.56H162.753L153.153 461C152.481 462.792 151.841 464.328 151.233 465.608C150.625 466.888 149.969 467.928 149.265 468.728C148.593 469.56 147.841 470.152 147.009 470.504C146.177 470.888 145.185 471.08 144.033 471.08ZM167.053 461V435.56H171.565L180.637 451.4L189.709 435.56H193.933V461H189.709V442.52L182.173 455.48H178.813L171.277 442.52V461H167.053ZM201.119 461V435.56H205.631L214.703 451.4L223.775 435.56H227.999V461H223.775V442.52L216.239 455.48H212.879L205.343 442.52V461H201.119ZM242.434 461.48C241.058 461.48 239.826 461.288 238.738 460.904C237.65 460.488 236.738 459.928 236.002 459.224C235.266 458.52 234.706 457.688 234.322 456.728C233.938 455.768 233.746 454.712 233.746 453.56C233.746 452.312 233.938 451.24 234.322 450.344C234.706 449.416 235.25 448.664 235.954 448.088C236.69 447.512 237.602 447.096 238.69 446.84C239.778 446.552 241.01 446.408 242.386 446.408H250.642V444.68C250.642 443.592 250.514 442.68 250.258 441.944C250.034 441.208 249.666 440.616 249.154 440.168C248.674 439.72 248.066 439.4 247.33 439.208C246.594 439.016 245.746 438.92 244.786 438.92C243.89 438.92 243.106 439.016 242.434 439.208C241.794 439.4 241.25 439.656 240.802 439.976C240.386 440.264 240.066 440.616 239.842 441.032C239.618 441.416 239.474 441.832 239.41 442.28H235.186C235.25 441.256 235.522 440.312 236.002 439.448C236.514 438.552 237.186 437.784 238.018 437.144C238.882 436.504 239.906 436.008 241.09 435.656C242.274 435.272 243.586 435.08 245.026 435.08C246.53 435.08 247.89 435.256 249.106 435.608C250.322 435.928 251.346 436.456 252.178 437.192C253.042 437.928 253.698 438.872 254.146 440.024C254.626 441.176 254.866 442.568 254.866 444.2V454.52C254.866 455.864 254.866 457.048 254.866 458.072C254.898 459.064 254.978 460.04 255.106 461H251.41C251.314 460.264 251.25 459.576 251.218 458.936C251.186 458.264 251.17 457.512 251.17 456.68C250.85 457.352 250.402 457.976 249.826 458.552C249.282 459.128 248.642 459.64 247.906 460.088C247.17 460.504 246.338 460.84 245.41 461.096C244.482 461.352 243.49 461.48 242.434 461.48ZM243.346 457.64C244.338 457.64 245.266 457.512 246.13 457.256C247.026 456.968 247.81 456.568 248.482 456.056C249.154 455.512 249.682 454.856 250.066 454.088C250.45 453.288 250.642 452.392 250.642 451.4V449.672H243.106C241.538 449.672 240.306 449.992 239.41 450.632C238.514 451.24 238.066 452.216 238.066 453.56C238.066 454.744 238.482 455.72 239.314 456.488C240.178 457.256 241.522 457.64 243.346 457.64ZM261.847 470.6V435.56H265.783V440.36C266.231 439.496 266.759 438.744 267.367 438.104C267.975 437.432 268.663 436.872 269.431 436.424C270.199 435.976 271.031 435.64 271.927 435.416C272.823 435.192 273.783 435.08 274.807 435.08C276.407 435.08 277.847 435.352 279.127 435.896C280.439 436.408 281.559 437.192 282.487 438.248C283.415 439.272 284.119 440.568 284.599 442.136C285.111 443.672 285.367 445.48 285.367 447.56V448.52C285.367 450.664 285.111 452.552 284.599 454.184C284.087 455.816 283.367 457.176 282.439 458.264C281.511 459.32 280.391 460.12 279.079 460.664C277.799 461.208 276.375 461.48 274.807 461.48C272.631 461.48 270.807 461 269.335 460.04C267.895 459.08 266.807 457.88 266.071 456.44V470.6H261.847ZM273.847 457.736C274.871 457.736 275.831 457.544 276.727 457.16C277.623 456.744 278.391 456.152 279.031 455.384C279.703 454.616 280.215 453.656 280.567 452.504C280.951 451.352 281.143 450.024 281.143 448.52V447.56C281.143 446.152 280.951 444.92 280.567 443.864C280.215 442.776 279.703 441.864 279.031 441.128C278.391 440.36 277.623 439.784 276.727 439.4C275.831 439.016 274.871 438.824 273.847 438.824C272.695 438.824 271.639 439.016 270.679 439.4C269.719 439.752 268.903 440.264 268.231 440.936C267.559 441.576 267.031 442.344 266.647 443.24C266.263 444.136 266.071 445.096 266.071 446.12V449.96C266.071 451.112 266.263 452.168 266.647 453.128C267.031 454.088 267.559 454.904 268.231 455.576C268.903 456.248 269.719 456.776 270.679 457.16C271.639 457.544 272.695 457.736 273.847 457.736ZM290.898 461V435.56H295.122V454.76L308.274 435.56H312.498V461H308.274V441.8L295.122 461H290.898ZM328.355 461.48C326.755 461.48 325.315 461.304 324.035 460.952C322.787 460.6 321.715 460.104 320.819 459.464C319.923 458.792 319.219 457.992 318.707 457.064C318.195 456.104 317.891 455.016 317.795 453.8H322.019C322.115 454.408 322.323 454.952 322.643 455.432C322.995 455.912 323.443 456.328 323.987 456.68C324.531 457 325.171 457.24 325.907 457.4C326.643 457.56 327.459 457.64 328.355 457.64C330.563 457.64 332.163 457.272 333.155 456.536C334.179 455.768 334.691 454.856 334.691 453.8C334.691 452.552 334.275 451.576 333.443 450.872C332.611 450.136 331.171 449.768 329.123 449.768H324.755V446.312H328.835C330.595 446.312 331.843 445.976 332.579 445.304C333.347 444.632 333.731 443.688 333.731 442.472C333.731 441.512 333.283 440.68 332.387 439.976C331.523 439.272 330.179 438.92 328.355 438.92C326.403 438.92 324.979 439.24 324.083 439.88C323.219 440.488 322.691 441.368 322.499 442.52H318.275C318.371 441.464 318.659 440.488 319.139 439.592C319.651 438.664 320.339 437.864 321.203 437.192C322.067 436.52 323.091 436.008 324.275 435.656C325.491 435.272 326.851 435.08 328.355 435.08C329.987 435.08 331.395 435.272 332.579 435.656C333.795 436.008 334.803 436.52 335.603 437.192C336.403 437.832 336.995 438.6 337.379 439.496C337.763 440.392 337.955 441.384 337.955 442.472C337.955 443.688 337.651 444.76 337.043 445.688C336.435 446.584 335.459 447.288 334.115 447.8C335.011 448.024 335.763 448.344 336.371 448.76C336.979 449.144 337.475 449.592 337.859 450.104C338.243 450.616 338.515 451.192 338.675 451.832C338.835 452.44 338.915 453.096 338.915 453.8C338.915 454.856 338.691 455.848 338.243 456.776C337.795 457.704 337.123 458.52 336.227 459.224C335.363 459.896 334.259 460.44 332.915 460.856C331.603 461.272 330.083 461.48 328.355 461.48ZM344.454 461V435.56H348.678V454.76L361.83 435.56H366.054V461H361.83V441.8L348.678 461H344.454ZM373.271 470.6V435.56H377.207V440.36C377.655 439.496 378.183 438.744 378.791 438.104C379.399 437.432 380.087 436.872 380.855 436.424C381.623 435.976 382.455 435.64 383.351 435.416C384.247 435.192 385.207 435.08 386.231 435.08C387.831 435.08 389.271 435.352 390.551 435.896C391.863 436.408 392.983 437.192 393.911 438.248C394.839 439.272 395.543 440.568 396.023 442.136C396.535 443.672 396.791 445.48 396.791 447.56V448.52C396.791 450.664 396.535 452.552 396.023 454.184C395.511 455.816 394.791 457.176 393.863 458.264C392.935 459.32 391.815 460.12 390.503 460.664C389.223 461.208 387.799 461.48 386.231 461.48C384.055 461.48 382.231 461 380.759 460.04C379.319 459.08 378.231 457.88 377.495 456.44V470.6H373.271ZM385.271 457.736C386.295 457.736 387.255 457.544 388.151 457.16C389.047 456.744 389.815 456.152 390.455 455.384C391.127 454.616 391.639 453.656 391.991 452.504C392.375 451.352 392.567 450.024 392.567 448.52V447.56C392.567 446.152 392.375 444.92 391.991 443.864C391.639 442.776 391.127 441.864 390.455 441.128C389.815 440.36 389.047 439.784 388.151 439.4C387.255 439.016 386.295 438.824 385.271 438.824C384.119 438.824 383.063 439.016 382.103 439.4C381.143 439.752 380.327 440.264 379.655 440.936C378.983 441.576 378.455 442.344 378.071 443.24C377.687 444.136 377.495 445.096 377.495 446.12V449.96C377.495 451.112 377.687 452.168 378.071 453.128C378.455 454.088 378.983 454.904 379.655 455.576C380.327 456.248 381.143 456.776 382.103 457.16C383.063 457.544 384.119 457.736 385.271 457.736ZM412.882 461.48C411.25 461.48 409.698 461.224 408.226 460.712C406.754 460.168 405.458 459.368 404.338 458.312C403.218 457.224 402.322 455.864 401.65 454.232C400.978 452.6 400.642 450.696 400.642 448.52V447.56C400.642 445.48 400.978 443.672 401.65 442.136C402.322 440.568 403.218 439.272 404.338 438.248C405.458 437.192 406.754 436.408 408.226 435.896C409.698 435.352 411.25 435.08 412.882 435.08C414.514 435.08 416.066 435.352 417.538 435.896C419.01 436.408 420.306 437.192 421.426 438.248C422.546 439.272 423.442 440.568 424.114 442.136C424.786 443.672 425.122 445.48 425.122 447.56V448.52C425.122 450.696 424.786 452.6 424.114 454.232C423.442 455.864 422.546 457.224 421.426 458.312C420.306 459.368 419.01 460.168 417.538 460.712C416.066 461.224 414.514 461.48 412.882 461.48ZM412.882 457.64C413.842 457.64 414.802 457.48 415.762 457.16C416.722 456.808 417.57 456.28 418.306 455.576C419.042 454.84 419.634 453.896 420.082 452.744C420.562 451.592 420.802 450.184 420.802 448.52V447.56C420.802 446.024 420.562 444.712 420.082 443.624C419.634 442.536 419.042 441.64 418.306 440.936C417.57 440.232 416.722 439.72 415.762 439.4C414.802 439.08 413.842 438.92 412.882 438.92C411.922 438.92 410.962 439.08 410.002 439.4C409.042 439.72 408.194 440.232 407.458 440.936C406.722 441.64 406.114 442.536 405.634 443.624C405.186 444.712 404.962 446.024 404.962 447.56V448.52C404.962 450.184 405.186 451.592 405.634 452.744C406.114 453.896 406.722 454.84 407.458 455.576C408.194 456.28 409.042 456.808 410.002 457.16C410.962 457.48 411.922 457.64 412.882 457.64ZM430.623 461V435.56H441.663C443.231 435.56 444.591 435.736 445.743 436.088C446.895 436.408 447.839 436.888 448.575 437.528C449.311 438.136 449.855 438.872 450.207 439.736C450.591 440.568 450.783 441.496 450.783 442.52C450.783 443.096 450.687 443.656 450.495 444.2C450.303 444.744 450.031 445.256 449.679 445.736C449.359 446.184 448.959 446.6 448.479 446.984C448.031 447.336 447.519 447.608 446.943 447.8C448.511 448.184 449.695 448.92 450.495 450.008C451.327 451.064 451.743 452.312 451.743 453.752C451.743 455.96 451.007 457.72 449.535 459.032C448.063 460.344 445.759 461 442.623 461H430.623ZM434.847 457.256H442.623C444.447 457.256 445.711 456.936 446.415 456.296C447.151 455.656 447.519 454.744 447.519 453.56C447.519 452.344 447.151 451.416 446.415 450.776C445.711 450.104 444.447 449.768 442.623 449.768H434.847V457.256ZM434.847 446.312H441.663C442.591 446.312 443.359 446.232 443.967 446.072C444.607 445.912 445.119 445.672 445.503 445.352C445.887 445.032 446.159 444.664 446.319 444.248C446.479 443.8 446.559 443.288 446.559 442.712C446.559 442.168 446.479 441.688 446.319 441.272C446.159 440.856 445.887 440.504 445.503 440.216C445.119 439.928 444.607 439.704 443.967 439.544C443.359 439.384 442.591 439.304 441.663 439.304H434.847V446.312ZM464.532 461.48C463.156 461.48 461.924 461.288 460.836 460.904C459.748 460.488 458.836 459.928 458.1 459.224C457.364 458.52 456.804 457.688 456.42 456.728C456.036 455.768 455.844 454.712 455.844 453.56C455.844 452.312 456.036 451.24 456.42 450.344C456.804 449.416 457.348 448.664 458.052 448.088C458.788 447.512 459.7 447.096 460.788 446.84C461.876 446.552 463.108 446.408 464.484 446.408H472.74V444.68C472.74 443.592 472.612 442.68 472.356 441.944C472.132 441.208 471.764 440.616 471.252 440.168C470.772 439.72 470.164 439.4 469.428 439.208C468.692 439.016 467.844 438.92 466.884 438.92C465.988 438.92 465.204 439.016 464.532 439.208C463.892 439.4 463.348 439.656 462.9 439.976C462.484 440.264 462.164 440.616 461.94 441.032C461.716 441.416 461.572 441.832 461.508 442.28H457.284C457.348 441.256 457.62 440.312 458.1 439.448C458.612 438.552 459.284 437.784 460.116 437.144C460.98 436.504 462.004 436.008 463.188 435.656C464.372 435.272 465.684 435.08 467.124 435.08C468.628 435.08 469.988 435.256 471.204 435.608C472.42 435.928 473.444 436.456 474.276 437.192C475.14 437.928 475.796 438.872 476.244 440.024C476.724 441.176 476.964 442.568 476.964 444.2V454.52C476.964 455.864 476.964 457.048 476.964 458.072C476.996 459.064 477.076 460.04 477.204 461H473.508C473.412 460.264 473.348 459.576 473.316 458.936C473.284 458.264 473.268 457.512 473.268 456.68C472.948 457.352 472.5 457.976 471.924 458.552C471.38 459.128 470.74 459.64 470.004 460.088C469.268 460.504 468.436 460.84 467.508 461.096C466.58 461.352 465.588 461.48 464.532 461.48ZM465.444 457.64C466.436 457.64 467.364 457.512 468.228 457.256C469.124 456.968 469.908 456.568 470.58 456.056C471.252 455.512 471.78 454.856 472.164 454.088C472.548 453.288 472.74 452.392 472.74 451.4V449.672H465.204C463.636 449.672 462.404 449.992 461.508 450.632C460.612 451.24 460.164 452.216 460.164 453.56C460.164 454.744 460.58 455.72 461.412 456.488C462.276 457.256 463.62 457.64 465.444 457.64ZM489.284 461V439.304H480.596V435.56H502.196V439.304H493.508V461H489.284ZM506.527 461V435.56H510.751V445.16H516.847C518.447 445.16 519.823 445.352 520.975 445.736C522.159 446.088 523.135 446.6 523.903 447.272C524.671 447.944 525.247 448.776 525.631 449.768C526.015 450.76 526.207 451.88 526.207 453.128C526.207 454.344 526.015 455.448 525.631 456.44C525.247 457.4 524.671 458.216 523.903 458.888C523.135 459.56 522.159 460.088 520.975 460.472C519.823 460.824 518.447 461 516.847 461H506.527ZM510.751 457.256H516.607C518.591 457.256 519.983 456.904 520.783 456.2C521.583 455.496 521.983 454.456 521.983 453.08C521.983 451.704 521.583 450.664 520.783 449.96C519.983 449.256 518.591 448.904 516.607 448.904H510.751V457.256Z" fill="white"/>
<rect width="608" height="100" transform="translate(80 528)" fill="#30BCED"/>
<path d="M116.119 593V567.56H137.239V593H133.015V571.304H120.343V593H116.119ZM154.98 593.48C153.348 593.48 151.796 593.224 150.324 592.712C148.852 592.2 147.556 591.416 146.436 590.36C145.316 589.272 144.42 587.912 143.748 586.28C143.076 584.648 142.74 582.728 142.74 580.52V579.56C142.74 577.448 143.06 575.624 143.7 574.088C144.34 572.52 145.188 571.224 146.244 570.2C147.332 569.144 148.58 568.36 149.988 567.848C151.428 567.336 152.932 567.08 154.5 567.08C158.244 567.08 161.14 568.104 163.188 570.152C165.236 572.2 166.26 575.096 166.26 578.84V581.528H146.964C146.964 583 147.204 584.264 147.684 585.32C148.164 586.344 148.788 587.176 149.556 587.816C150.324 588.456 151.172 588.92 152.1 589.208C153.06 589.496 154.02 589.64 154.98 589.64C156.9 589.64 158.372 589.32 159.396 588.68C160.452 588.04 161.204 587.16 161.652 586.04H165.78C165.524 587.256 165.06 588.328 164.388 589.256C163.748 590.184 162.948 590.968 161.988 591.608C161.06 592.216 159.988 592.68 158.772 593C157.588 593.32 156.324 593.48 154.98 593.48ZM146.964 578.072H162.276C162.244 576.76 162.02 575.656 161.604 574.76C161.22 573.832 160.692 573.096 160.02 572.552C159.348 571.976 158.548 571.56 157.62 571.304C156.724 571.048 155.764 570.92 154.74 570.92C153.748 570.92 152.788 571.064 151.86 571.352C150.932 571.608 150.1 572.04 149.364 572.648C148.66 573.224 148.084 573.96 147.636 574.856C147.188 575.752 146.964 576.824 146.964 578.072ZM171.784 602.6V567.56H175.72V572.36C176.168 571.496 176.696 570.744 177.304 570.104C177.912 569.432 178.6 568.872 179.368 568.424C180.136 567.976 180.968 567.64 181.864 567.416C182.76 567.192 183.72 567.08 184.744 567.08C186.344 567.08 187.784 567.352 189.064 567.896C190.376 568.408 191.496 569.192 192.424 570.248C193.352 571.272 194.056 572.568 194.536 574.136C195.048 575.672 195.304 577.48 195.304 579.56V580.52C195.304 582.664 195.048 584.552 194.536 586.184C194.024 587.816 193.304 589.176 192.376 590.264C191.448 591.32 190.328 592.12 189.016 592.664C187.736 593.208 186.312 593.48 184.744 593.48C182.568 593.48 180.744 593 179.272 592.04C177.832 591.08 176.744 589.88 176.008 588.44V602.6H171.784ZM183.784 589.736C184.808 589.736 185.768 589.544 186.664 589.16C187.56 588.744 188.328 588.152 188.968 587.384C189.64 586.616 190.152 585.656 190.504 584.504C190.888 583.352 191.08 582.024 191.08 580.52V579.56C191.08 578.152 190.888 576.92 190.504 575.864C190.152 574.776 189.64 573.864 188.968 573.128C188.328 572.36 187.56 571.784 186.664 571.4C185.768 571.016 184.808 570.824 183.784 570.824C182.632 570.824 181.576 571.016 180.616 571.4C179.656 571.752 178.84 572.264 178.168 572.936C177.496 573.576 176.968 574.344 176.584 575.24C176.2 576.136 176.008 577.096 176.008 578.12V581.96C176.008 583.112 176.2 584.168 176.584 585.128C176.968 586.088 177.496 586.904 178.168 587.576C178.84 588.248 179.656 588.776 180.616 589.16C181.576 589.544 182.632 589.736 183.784 589.736ZM211.395 593.48C209.763 593.48 208.211 593.224 206.739 592.712C205.267 592.2 203.971 591.416 202.851 590.36C201.731 589.272 200.835 587.912 200.163 586.28C199.491 584.648 199.155 582.728 199.155 580.52V579.56C199.155 577.448 199.475 575.624 200.115 574.088C200.755 572.52 201.603 571.224 202.659 570.2C203.747 569.144 204.995 568.36 206.403 567.848C207.843 567.336 209.347 567.08 210.915 567.08C214.659 567.08 217.555 568.104 219.603 570.152C221.651 572.2 222.675 575.096 222.675 578.84V581.528H203.379C203.379 583 203.619 584.264 204.099 585.32C204.579 586.344 205.203 587.176 205.971 587.816C206.739 588.456 207.587 588.92 208.515 589.208C209.475 589.496 210.435 589.64 211.395 589.64C213.315 589.64 214.787 589.32 215.811 588.68C216.867 588.04 217.619 587.16 218.067 586.04H222.195C221.939 587.256 221.475 588.328 220.803 589.256C220.163 590.184 219.363 590.968 218.403 591.608C217.475 592.216 216.403 592.68 215.187 593C214.003 593.32 212.739 593.48 211.395 593.48ZM203.379 578.072H218.691C218.659 576.76 218.435 575.656 218.019 574.76C217.635 573.832 217.107 573.096 216.435 572.552C215.763 571.976 214.963 571.56 214.035 571.304C213.139 571.048 212.179 570.92 211.155 570.92C210.163 570.92 209.203 571.064 208.275 571.352C207.347 571.608 206.515 572.04 205.779 572.648C205.075 573.224 204.499 573.96 204.051 574.856C203.603 575.752 203.379 576.824 203.379 578.072ZM228.199 593V567.56H249.319V593H245.095V571.304H232.423V593H228.199ZM256.5 593V567.56H260.724V586.76L273.876 567.56H278.1V593H273.876V573.8L260.724 593H256.5ZM295.157 593.48C293.525 593.48 292.005 593.224 290.597 592.712C289.189 592.168 287.973 591.368 286.949 590.312C285.925 589.224 285.109 587.864 284.501 586.232C283.925 584.6 283.637 582.696 283.637 580.52V579.56C283.637 577.48 283.957 575.672 284.597 574.136C285.237 572.568 286.085 571.272 287.141 570.248C288.197 569.192 289.413 568.408 290.789 567.896C292.197 567.352 293.653 567.08 295.157 567.08C296.661 567.08 298.005 567.288 299.189 567.704C300.405 568.12 301.445 568.696 302.309 569.432C303.205 570.168 303.925 571.032 304.469 572.024C305.045 573.016 305.461 574.088 305.717 575.24H301.397C301.141 574.632 300.837 574.072 300.485 573.56C300.165 573.016 299.749 572.552 299.237 572.168C298.757 571.784 298.181 571.48 297.509 571.256C296.869 571.032 296.085 570.92 295.157 570.92C294.229 570.92 293.333 571.096 292.469 571.448C291.605 571.768 290.837 572.28 290.165 572.984C289.493 573.656 288.949 574.536 288.533 575.624C288.149 576.712 287.957 578.024 287.957 579.56V580.52C287.957 582.152 288.149 583.56 288.533 584.744C288.949 585.896 289.493 586.84 290.165 587.576C290.837 588.28 291.605 588.808 292.469 589.16C293.333 589.48 294.229 589.64 295.157 589.64C296.725 589.64 298.037 589.256 299.093 588.488C300.181 587.72 300.949 586.664 301.397 585.32H305.717C305.429 586.568 304.965 587.704 304.325 588.728C303.685 589.72 302.901 590.568 301.973 591.272C301.077 591.976 300.053 592.52 298.901 592.904C297.749 593.288 296.501 593.48 295.157 593.48ZM318.241 593.48C316.865 593.48 315.633 593.288 314.545 592.904C313.457 592.488 312.545 591.928 311.809 591.224C311.073 590.52 310.513 589.688 310.129 588.728C309.745 587.768 309.553 586.712 309.553 585.56C309.553 584.312 309.745 583.24 310.129 582.344C310.513 581.416 311.057 580.664 311.761 580.088C312.497 579.512 313.409 579.096 314.497 578.84C315.585 578.552 316.817 578.408 318.193 578.408H326.449V576.68C326.449 575.592 326.321 574.68 326.065 573.944C325.841 573.208 325.473 572.616 324.961 572.168C324.481 571.72 323.873 571.4 323.137 571.208C322.401 571.016 321.553 570.92 320.593 570.92C319.697 570.92 318.913 571.016 318.241 571.208C317.601 571.4 317.057 571.656 316.609 571.976C316.193 572.264 315.873 572.616 315.649 573.032C315.425 573.416 315.281 573.832 315.217 574.28H310.993C311.057 573.256 311.329 572.312 311.809 571.448C312.321 570.552 312.993 569.784 313.825 569.144C314.689 568.504 315.713 568.008 316.897 567.656C318.081 567.272 319.393 567.08 320.833 567.08C322.337 567.08 323.697 567.256 324.913 567.608C326.129 567.928 327.153 568.456 327.985 569.192C328.849 569.928 329.505 570.872 329.953 572.024C330.433 573.176 330.673 574.568 330.673 576.2V586.52C330.673 587.864 330.673 589.048 330.673 590.072C330.705 591.064 330.785 592.04 330.913 593H327.217C327.121 592.264 327.057 591.576 327.025 590.936C326.993 590.264 326.977 589.512 326.977 588.68C326.657 589.352 326.209 589.976 325.633 590.552C325.089 591.128 324.449 591.64 323.713 592.088C322.977 592.504 322.145 592.84 321.217 593.096C320.289 593.352 319.297 593.48 318.241 593.48ZM319.153 589.64C320.145 589.64 321.073 589.512 321.937 589.256C322.833 588.968 323.617 588.568 324.289 588.056C324.961 587.512 325.489 586.856 325.873 586.088C326.257 585.288 326.449 584.392 326.449 583.4V581.672H318.913C317.345 581.672 316.113 581.992 315.217 582.632C314.321 583.24 313.873 584.216 313.873 585.56C313.873 586.744 314.289 587.72 315.121 588.488C315.985 589.256 317.329 589.64 319.153 589.64ZM342.993 593V571.304H334.305V567.56H355.905V571.304H347.217V593H342.993ZM360.236 593V567.56H364.46V577.16H370.556C372.156 577.16 373.532 577.352 374.684 577.736C375.868 578.088 376.844 578.6 377.612 579.272C378.38 579.944 378.956 580.776 379.34 581.768C379.724 582.76 379.916 583.88 379.916 585.128C379.916 586.344 379.724 587.448 379.34 588.44C378.956 589.4 378.38 590.216 377.612 590.888C376.844 591.56 375.868 592.088 374.684 592.472C373.532 592.824 372.156 593 370.556 593H360.236ZM364.46 589.256H370.316C372.3 589.256 373.692 588.904 374.492 588.2C375.292 587.496 375.692 586.456 375.692 585.08C375.692 583.704 375.292 582.664 374.492 581.96C373.692 581.256 372.3 580.904 370.316 580.904H364.46V589.256ZM408.303 602.6V593.48C406.095 593.48 404.143 593.192 402.447 592.616C400.783 592.04 399.375 591.208 398.223 590.12C397.103 589.032 396.255 587.688 395.679 586.088C395.103 584.456 394.815 582.616 394.815 580.568V579.608C394.815 577.624 395.103 575.864 395.679 574.328C396.255 572.792 397.103 571.48 398.223 570.392C399.375 569.304 400.783 568.488 402.447 567.944C404.143 567.368 406.095 567.08 408.303 567.08V559.4H412.527V567.08C414.735 567.08 416.671 567.368 418.335 567.944C420.031 568.488 421.439 569.304 422.559 570.392C423.711 571.48 424.575 572.792 425.151 574.328C425.727 575.864 426.015 577.624 426.015 579.608V580.568C426.015 582.616 425.727 584.456 425.151 586.088C424.575 587.688 423.711 589.032 422.559 590.12C421.439 591.208 420.031 592.04 418.335 592.616C416.671 593.192 414.735 593.48 412.527 593.48V602.6H408.303ZM412.479 589.64C415.679 589.64 418.015 588.904 419.487 587.432C420.959 585.96 421.695 583.672 421.695 580.568V579.608C421.695 576.696 420.959 574.52 419.487 573.08C418.015 571.64 415.679 570.92 412.479 570.92V589.64ZM408.351 589.64V570.92C405.151 570.92 402.815 571.64 401.343 573.08C399.871 574.52 399.135 576.696 399.135 579.608V580.568C399.135 583.672 399.871 585.96 401.343 587.432C402.815 588.904 405.151 589.64 408.351 589.64ZM442.106 593.48C440.474 593.48 438.922 593.224 437.45 592.712C435.978 592.168 434.682 591.368 433.562 590.312C432.442 589.224 431.546 587.864 430.874 586.232C430.202 584.6 429.866 582.696 429.866 580.52V579.56C429.866 577.48 430.202 575.672 430.874 574.136C431.546 572.568 432.442 571.272 433.562 570.248C434.682 569.192 435.978 568.408 437.45 567.896C438.922 567.352 440.474 567.08 442.106 567.08C443.738 567.08 445.29 567.352 446.762 567.896C448.234 568.408 449.53 569.192 450.65 570.248C451.77 571.272 452.666 572.568 453.338 574.136C454.01 575.672 454.346 577.48 454.346 579.56V580.52C454.346 582.696 454.01 584.6 453.338 586.232C452.666 587.864 451.77 589.224 450.65 590.312C449.53 591.368 448.234 592.168 446.762 592.712C445.29 593.224 443.738 593.48 442.106 593.48ZM442.106 589.64C443.066 589.64 444.026 589.48 444.986 589.16C445.946 588.808 446.794 588.28 447.53 587.576C448.266 586.84 448.858 585.896 449.306 584.744C449.786 583.592 450.026 582.184 450.026 580.52V579.56C450.026 578.024 449.786 576.712 449.306 575.624C448.858 574.536 448.266 573.64 447.53 572.936C446.794 572.232 445.946 571.72 444.986 571.4C444.026 571.08 443.066 570.92 442.106 570.92C441.146 570.92 440.186 571.08 439.226 571.4C438.266 571.72 437.418 572.232 436.682 572.936C435.946 573.64 435.338 574.536 434.858 575.624C434.41 576.712 434.186 578.024 434.186 579.56V580.52C434.186 582.184 434.41 583.592 434.858 584.744C435.338 585.896 435.946 586.84 436.682 587.576C437.418 588.28 438.266 588.808 439.226 589.16C440.186 589.48 441.146 589.64 442.106 589.64ZM459.848 602.6V567.56H463.784V572.36C464.232 571.496 464.76 570.744 465.368 570.104C465.976 569.432 466.664 568.872 467.432 568.424C468.2 567.976 469.032 567.64 469.928 567.416C470.824 567.192 471.784 567.08 472.808 567.08C474.408 567.08 475.848 567.352 477.128 567.896C478.44 568.408 479.56 569.192 480.488 570.248C481.416 571.272 482.12 572.568 482.6 574.136C483.112 575.672 483.368 577.48 483.368 579.56V580.52C483.368 582.664 483.112 584.552 482.6 586.184C482.088 587.816 481.368 589.176 480.44 590.264C479.512 591.32 478.392 592.12 477.08 592.664C475.8 593.208 474.376 593.48 472.808 593.48C470.632 593.48 468.808 593 467.336 592.04C465.896 591.08 464.808 589.88 464.072 588.44V602.6H459.848ZM471.848 589.736C472.872 589.736 473.832 589.544 474.728 589.16C475.624 588.744 476.392 588.152 477.032 587.384C477.704 586.616 478.216 585.656 478.568 584.504C478.952 583.352 479.144 582.024 479.144 580.52V579.56C479.144 578.152 478.952 576.92 478.568 575.864C478.216 574.776 477.704 573.864 477.032 573.128C476.392 572.36 475.624 571.784 474.728 571.4C473.832 571.016 472.872 570.824 471.848 570.824C470.696 570.824 469.64 571.016 468.68 571.4C467.72 571.752 466.904 572.264 466.232 572.936C465.56 573.576 465.032 574.344 464.648 575.24C464.264 576.136 464.072 577.096 464.072 578.12V581.96C464.072 583.112 464.264 584.168 464.648 585.128C465.032 586.088 465.56 586.904 466.232 587.576C466.904 588.248 467.72 588.776 468.68 589.16C469.64 589.544 470.696 589.736 471.848 589.736ZM488.899 593V567.56H493.411L502.483 583.4L511.555 567.56H515.779V593H511.555V574.52L504.019 587.48H500.659L493.123 574.52V593H488.899ZM530.214 593.48C528.838 593.48 527.606 593.288 526.518 592.904C525.43 592.488 524.518 591.928 523.782 591.224C523.046 590.52 522.486 589.688 522.102 588.728C521.718 587.768 521.526 586.712 521.526 585.56C521.526 584.312 521.718 583.24 522.102 582.344C522.486 581.416 523.03 580.664 523.734 580.088C524.47 579.512 525.382 579.096 526.47 578.84C527.558 578.552 528.79 578.408 530.166 578.408H538.422V576.68C538.422 575.592 538.294 574.68 538.038 573.944C537.814 573.208 537.446 572.616 536.934 572.168C536.454 571.72 535.846 571.4 535.11 571.208C534.374 571.016 533.526 570.92 532.566 570.92C531.67 570.92 530.886 571.016 530.214 571.208C529.574 571.4 529.03 571.656 528.582 571.976C528.166 572.264 527.846 572.616 527.622 573.032C527.398 573.416 527.254 573.832 527.19 574.28H522.966C523.03 573.256 523.302 572.312 523.782 571.448C524.294 570.552 524.966 569.784 525.798 569.144C526.662 568.504 527.686 568.008 528.87 567.656C530.054 567.272 531.366 567.08 532.806 567.08C534.31 567.08 535.67 567.256 536.886 567.608C538.102 567.928 539.126 568.456 539.958 569.192C540.822 569.928 541.478 570.872 541.926 572.024C542.406 573.176 542.646 574.568 542.646 576.2V586.52C542.646 587.864 542.646 589.048 542.646 590.072C542.678 591.064 542.758 592.04 542.886 593H539.19C539.094 592.264 539.03 591.576 538.998 590.936C538.966 590.264 538.95 589.512 538.95 588.68C538.63 589.352 538.182 589.976 537.606 590.552C537.062 591.128 536.422 591.64 535.686 592.088C534.95 592.504 534.118 592.84 533.19 593.096C532.262 593.352 531.27 593.48 530.214 593.48ZM531.126 589.64C532.118 589.64 533.046 589.512 533.91 589.256C534.806 588.968 535.59 588.568 536.262 588.056C536.934 587.512 537.462 586.856 537.846 586.088C538.23 585.288 538.422 584.392 538.422 583.4V581.672H530.886C529.318 581.672 528.086 581.992 527.19 582.632C526.294 583.24 525.846 584.216 525.846 585.56C525.846 586.744 526.262 587.72 527.094 588.488C527.958 589.256 529.302 589.64 531.126 589.64ZM548.426 593.48C548.298 593.48 548.17 593.48 548.042 593.48C547.946 593.48 547.834 593.464 547.706 593.432C547.578 593.432 547.45 593.416 547.322 593.384C547.226 593.384 547.114 593.368 546.986 593.336V589.112C547.05 589.144 547.146 589.16 547.274 589.16C547.402 589.16 547.546 589.16 547.706 589.16C548.442 589.16 549.066 588.936 549.578 588.488C550.09 588.04 550.506 587.256 550.826 586.136C551.146 585.016 551.386 583.496 551.546 581.576C551.706 579.656 551.786 577.224 551.786 574.28V567.56H570.026V593H565.802V571.304H556.01V575.24C556.01 578.792 555.85 581.736 555.53 584.072C555.21 586.408 554.73 588.28 554.09 589.688C553.482 591.064 552.698 592.04 551.738 592.616C550.778 593.192 549.674 593.48 548.426 593.48ZM577.224 593V567.56H581.448V577.16H587.544C589.144 577.16 590.52 577.352 591.672 577.736C592.856 578.088 593.832 578.6 594.6 579.272C595.368 579.944 595.944 580.776 596.328 581.768C596.712 582.76 596.904 583.88 596.904 585.128C596.904 586.344 596.712 587.448 596.328 588.44C595.944 589.4 595.368 590.216 594.6 590.888C593.832 591.56 592.856 592.088 591.672 592.472C590.52 592.824 589.144 593 587.544 593H577.224ZM581.448 589.256H587.304C589.288 589.256 590.68 588.904 591.48 588.2C592.28 587.496 592.68 586.456 592.68 585.08C592.68 583.704 592.28 582.664 591.48 581.96C590.68 581.256 589.288 580.904 587.304 580.904H581.448V589.256ZM601.963 593V567.56H606.187V578.168H619.339V567.56H623.563V593H619.339V581.912H606.187V593H601.963ZM641.34 593.48C639.708 593.48 638.156 593.224 636.684 592.712C635.212 592.168 633.916 591.368 632.796 590.312C631.676 589.224 630.78 587.864 630.108 586.232C629.436 584.6 629.1 582.696 629.1 580.52V579.56C629.1 577.48 629.436 575.672 630.108 574.136C630.78 572.568 631.676 571.272 632.796 570.248C633.916 569.192 635.212 568.408 636.684 567.896C638.156 567.352 639.708 567.08 641.34 567.08C642.972 567.08 644.524 567.352 645.996 567.896C647.468 568.408 648.764 569.192 649.884 570.248C651.004 571.272 651.9 572.568 652.572 574.136C653.244 575.672 653.58 577.48 653.58 579.56V580.52C653.58 582.696 653.244 584.6 652.572 586.232C651.9 587.864 651.004 589.224 649.884 590.312C648.764 591.368 647.468 592.168 645.996 592.712C644.524 593.224 642.972 593.48 641.34 593.48ZM641.34 589.64C642.3 589.64 643.26 589.48 644.22 589.16C645.18 588.808 646.028 588.28 646.764 587.576C647.5 586.84 648.092 585.896 648.54 584.744C649.02 583.592 649.26 582.184 649.26 580.52V579.56C649.26 578.024 649.02 576.712 648.54 575.624C648.092 574.536 647.5 573.64 646.764 572.936C646.028 572.232 645.18 571.72 644.22 571.4C643.26 571.08 642.3 570.92 641.34 570.92C640.38 570.92 639.42 571.08 638.46 571.4C637.5 571.72 636.652 572.232 635.916 572.936C635.18 573.64 634.572 574.536 634.092 575.624C633.644 576.712 633.42 578.024 633.42 579.56V580.52C633.42 582.184 633.644 583.592 634.092 584.744C634.572 585.896 635.18 586.84 635.916 587.576C636.652 588.28 637.5 588.808 638.46 589.16C639.42 589.48 640.38 589.64 641.34 589.64Z" fill="white"/>
<rect width="786" height="100" transform="translate(80 660)" fill="#30BCED"/>
<path d="M116.096 725V699.56H137.216V725H132.992V703.304H120.32V725H116.096ZM154.957 725.48C153.325 725.48 151.773 725.224 150.301 724.712C148.829 724.2 147.533 723.416 146.413 722.36C145.293 721.272 144.397 719.912 143.725 718.28C143.053 716.648 142.717 714.728 142.717 712.52V711.56C142.717 709.448 143.037 707.624 143.677 706.088C144.317 704.52 145.165 703.224 146.221 702.2C147.309 701.144 148.557 700.36 149.965 699.848C151.405 699.336 152.909 699.08 154.477 699.08C158.221 699.08 161.117 700.104 163.165 702.152C165.213 704.2 166.237 707.096 166.237 710.84V713.528H146.941C146.941 715 147.181 716.264 147.661 717.32C148.141 718.344 148.765 719.176 149.533 719.816C150.301 720.456 151.149 720.92 152.077 721.208C153.037 721.496 153.997 721.64 154.957 721.64C156.877 721.64 158.349 721.32 159.373 720.68C160.429 720.04 161.181 719.16 161.629 718.04H165.757C165.501 719.256 165.037 720.328 164.365 721.256C163.725 722.184 162.925 722.968 161.965 723.608C161.037 724.216 159.965 724.68 158.749 725C157.565 725.32 156.301 725.48 154.957 725.48ZM146.941 710.072H162.253C162.221 708.76 161.997 707.656 161.581 706.76C161.197 705.832 160.669 705.096 159.997 704.552C159.325 703.976 158.525 703.56 157.597 703.304C156.701 703.048 155.741 702.92 154.717 702.92C153.725 702.92 152.765 703.064 151.837 703.352C150.909 703.608 150.077 704.04 149.341 704.648C148.637 705.224 148.061 705.96 147.613 706.856C147.165 707.752 146.941 708.824 146.941 710.072ZM171.761 734.6V699.56H175.697V704.36C176.145 703.496 176.673 702.744 177.281 702.104C177.889 701.432 178.577 700.872 179.345 700.424C180.113 699.976 180.945 699.64 181.841 699.416C182.737 699.192 183.697 699.08 184.721 699.08C186.321 699.08 187.761 699.352 189.041 699.896C190.353 700.408 191.473 701.192 192.401 702.248C193.329 703.272 194.033 704.568 194.513 706.136C195.025 707.672 195.281 709.48 195.281 711.56V712.52C195.281 714.664 195.025 716.552 194.513 718.184C194.001 719.816 193.281 721.176 192.353 722.264C191.425 723.32 190.305 724.12 188.993 724.664C187.713 725.208 186.289 725.48 184.721 725.48C182.545 725.48 180.721 725 179.249 724.04C177.809 723.08 176.721 721.88 175.985 720.44V734.6H171.761ZM183.761 721.736C184.785 721.736 185.745 721.544 186.641 721.16C187.537 720.744 188.305 720.152 188.945 719.384C189.617 718.616 190.129 717.656 190.481 716.504C190.865 715.352 191.057 714.024 191.057 712.52V711.56C191.057 710.152 190.865 708.92 190.481 707.864C190.129 706.776 189.617 705.864 188.945 705.128C188.305 704.36 187.537 703.784 186.641 703.4C185.745 703.016 184.785 702.824 183.761 702.824C182.609 702.824 181.553 703.016 180.593 703.4C179.633 703.752 178.817 704.264 178.145 704.936C177.473 705.576 176.945 706.344 176.561 707.24C176.177 708.136 175.985 709.096 175.985 710.12V713.96C175.985 715.112 176.177 716.168 176.561 717.128C176.945 718.088 177.473 718.904 178.145 719.576C178.817 720.248 179.633 720.776 180.593 721.16C181.553 721.544 182.609 721.736 183.761 721.736ZM211.372 725.48C209.74 725.48 208.188 725.224 206.716 724.712C205.244 724.2 203.948 723.416 202.828 722.36C201.708 721.272 200.812 719.912 200.14 718.28C199.468 716.648 199.132 714.728 199.132 712.52V711.56C199.132 709.448 199.452 707.624 200.092 706.088C200.732 704.52 201.58 703.224 202.636 702.2C203.724 701.144 204.972 700.36 206.38 699.848C207.82 699.336 209.324 699.08 210.892 699.08C214.636 699.08 217.532 700.104 219.58 702.152C221.628 704.2 222.652 707.096 222.652 710.84V713.528H203.356C203.356 715 203.596 716.264 204.076 717.32C204.556 718.344 205.18 719.176 205.948 719.816C206.716 720.456 207.564 720.92 208.492 721.208C209.452 721.496 210.412 721.64 211.372 721.64C213.292 721.64 214.764 721.32 215.788 720.68C216.844 720.04 217.596 719.16 218.044 718.04H222.172C221.916 719.256 221.452 720.328 220.78 721.256C220.14 722.184 219.34 722.968 218.38 723.608C217.452 724.216 216.38 724.68 215.164 725C213.98 725.32 212.716 725.48 211.372 725.48ZM203.356 710.072H218.668C218.636 708.76 218.412 707.656 217.996 706.76C217.612 705.832 217.084 705.096 216.412 704.552C215.74 703.976 214.94 703.56 214.012 703.304C213.116 703.048 212.156 702.92 211.132 702.92C210.14 702.92 209.18 703.064 208.252 703.352C207.324 703.608 206.492 704.04 205.756 704.648C205.052 705.224 204.476 705.96 204.028 706.856C203.58 707.752 203.356 708.824 203.356 710.072ZM228.176 725V699.56H249.296V725H245.072V703.304H232.4V725H228.176ZM256.477 725V699.56H260.701V718.76L273.853 699.56H278.077V725H273.853V705.8L260.701 725H256.477ZM295.134 725.48C293.502 725.48 291.982 725.224 290.574 724.712C289.166 724.168 287.95 723.368 286.926 722.312C285.902 721.224 285.086 719.864 284.478 718.232C283.902 716.6 283.614 714.696 283.614 712.52V711.56C283.614 709.48 283.934 707.672 284.574 706.136C285.214 704.568 286.062 703.272 287.118 702.248C288.174 701.192 289.39 700.408 290.766 699.896C292.174 699.352 293.63 699.08 295.134 699.08C296.638 699.08 297.982 699.288 299.166 699.704C300.382 700.12 301.422 700.696 302.286 701.432C303.182 702.168 303.902 703.032 304.446 704.024C305.022 705.016 305.438 706.088 305.694 707.24H301.374C301.118 706.632 300.814 706.072 300.462 705.56C300.142 705.016 299.726 704.552 299.214 704.168C298.734 703.784 298.158 703.48 297.486 703.256C296.846 703.032 296.062 702.92 295.134 702.92C294.206 702.92 293.31 703.096 292.446 703.448C291.582 703.768 290.814 704.28 290.142 704.984C289.47 705.656 288.926 706.536 288.51 707.624C288.126 708.712 287.934 710.024 287.934 711.56V712.52C287.934 714.152 288.126 715.56 288.51 716.744C288.926 717.896 289.47 718.84 290.142 719.576C290.814 720.28 291.582 720.808 292.446 721.16C293.31 721.48 294.206 721.64 295.134 721.64C296.702 721.64 298.014 721.256 299.07 720.488C300.158 719.72 300.926 718.664 301.374 717.32H305.694C305.406 718.568 304.942 719.704 304.302 720.728C303.662 721.72 302.878 722.568 301.95 723.272C301.054 723.976 300.03 724.52 298.878 724.904C297.726 725.288 296.478 725.48 295.134 725.48ZM318.218 725.48C316.842 725.48 315.61 725.288 314.522 724.904C313.434 724.488 312.522 723.928 311.786 723.224C311.05 722.52 310.49 721.688 310.106 720.728C309.722 719.768 309.53 718.712 309.53 717.56C309.53 716.312 309.722 715.24 310.106 714.344C310.49 713.416 311.034 712.664 311.738 712.088C312.474 711.512 313.386 711.096 314.474 710.84C315.562 710.552 316.794 710.408 318.17 710.408H326.426V708.68C326.426 707.592 326.298 706.68 326.042 705.944C325.818 705.208 325.45 704.616 324.938 704.168C324.458 703.72 323.85 703.4 323.114 703.208C322.378 703.016 321.53 702.92 320.57 702.92C319.674 702.92 318.89 703.016 318.218 703.208C317.578 703.4 317.034 703.656 316.586 703.976C316.17 704.264 315.85 704.616 315.626 705.032C315.402 705.416 315.258 705.832 315.194 706.28H310.97C311.034 705.256 311.306 704.312 311.786 703.448C312.298 702.552 312.97 701.784 313.802 701.144C314.666 700.504 315.69 700.008 316.874 699.656C318.058 699.272 319.37 699.08 320.81 699.08C322.314 699.08 323.674 699.256 324.89 699.608C326.106 699.928 327.13 700.456 327.962 701.192C328.826 701.928 329.482 702.872 329.93 704.024C330.41 705.176 330.65 706.568 330.65 708.2V718.52C330.65 719.864 330.65 721.048 330.65 722.072C330.682 723.064 330.762 724.04 330.89 725H327.194C327.098 724.264 327.034 723.576 327.002 722.936C326.97 722.264 326.954 721.512 326.954 720.68C326.634 721.352 326.186 721.976 325.61 722.552C325.066 723.128 324.426 723.64 323.69 724.088C322.954 724.504 322.122 724.84 321.194 725.096C320.266 725.352 319.274 725.48 318.218 725.48ZM319.13 721.64C320.122 721.64 321.05 721.512 321.914 721.256C322.81 720.968 323.594 720.568 324.266 720.056C324.938 719.512 325.466 718.856 325.85 718.088C326.234 717.288 326.426 716.392 326.426 715.4V713.672H318.89C317.322 713.672 316.09 713.992 315.194 714.632C314.298 715.24 313.85 716.216 313.85 717.56C313.85 718.744 314.266 719.72 315.098 720.488C315.962 721.256 317.306 721.64 319.13 721.64ZM342.97 725V703.304H334.282V699.56H355.882V703.304H347.194V725H342.97ZM360.213 725V699.56H364.437V709.16H370.533C372.133 709.16 373.509 709.352 374.661 709.736C375.845 710.088 376.821 710.6 377.589 711.272C378.357 711.944 378.933 712.776 379.317 713.768C379.701 714.76 379.893 715.88 379.893 717.128C379.893 718.344 379.701 719.448 379.317 720.44C378.933 721.4 378.357 722.216 377.589 722.888C376.821 723.56 375.845 724.088 374.661 724.472C373.509 724.824 372.133 725 370.533 725H360.213ZM364.437 721.256H370.293C372.277 721.256 373.669 720.904 374.469 720.2C375.269 719.496 375.669 718.456 375.669 717.08C375.669 715.704 375.269 714.664 374.469 713.96C373.669 713.256 372.277 712.904 370.293 712.904H364.437V721.256ZM396.472 725V699.56H417.592V725H413.368V703.304H400.696V725H396.472ZM424.773 734.6V699.56H428.709V704.36C429.157 703.496 429.685 702.744 430.293 702.104C430.901 701.432 431.589 700.872 432.357 700.424C433.125 699.976 433.957 699.64 434.853 699.416C435.749 699.192 436.709 699.08 437.733 699.08C439.333 699.08 440.773 699.352 442.053 699.896C443.365 700.408 444.485 701.192 445.413 702.248C446.341 703.272 447.045 704.568 447.525 706.136C448.037 707.672 448.293 709.48 448.293 711.56V712.52C448.293 714.664 448.037 716.552 447.525 718.184C447.013 719.816 446.293 721.176 445.365 722.264C444.437 723.32 443.317 724.12 442.005 724.664C440.725 725.208 439.301 725.48 437.733 725.48C435.557 725.48 433.733 725 432.261 724.04C430.821 723.08 429.733 721.88 428.997 720.44V734.6H424.773ZM436.773 721.736C437.797 721.736 438.757 721.544 439.653 721.16C440.549 720.744 441.317 720.152 441.957 719.384C442.629 718.616 443.141 717.656 443.493 716.504C443.877 715.352 444.069 714.024 444.069 712.52V711.56C444.069 710.152 443.877 708.92 443.493 707.864C443.141 706.776 442.629 705.864 441.957 705.128C441.317 704.36 440.549 703.784 439.653 703.4C438.757 703.016 437.797 702.824 436.773 702.824C435.621 702.824 434.565 703.016 433.605 703.4C432.645 703.752 431.829 704.264 431.157 704.936C430.485 705.576 429.957 706.344 429.573 707.24C429.189 708.136 428.997 709.096 428.997 710.12V713.96C428.997 715.112 429.189 716.168 429.573 717.128C429.957 718.088 430.485 718.904 431.157 719.576C431.829 720.248 432.645 720.776 433.605 721.16C434.565 721.544 435.621 721.736 436.773 721.736ZM464.384 725.48C462.752 725.48 461.2 725.224 459.728 724.712C458.256 724.168 456.96 723.368 455.84 722.312C454.72 721.224 453.824 719.864 453.152 718.232C452.48 716.6 452.144 714.696 452.144 712.52V711.56C452.144 709.48 452.48 707.672 453.152 706.136C453.824 704.568 454.72 703.272 455.84 702.248C456.96 701.192 458.256 700.408 459.728 699.896C461.2 699.352 462.752 699.08 464.384 699.08C466.016 699.08 467.568 699.352 469.04 699.896C470.512 700.408 471.808 701.192 472.928 702.248C474.048 703.272 474.944 704.568 475.616 706.136C476.288 707.672 476.624 709.48 476.624 711.56V712.52C476.624 714.696 476.288 716.6 475.616 718.232C474.944 719.864 474.048 721.224 472.928 722.312C471.808 723.368 470.512 724.168 469.04 724.712C467.568 725.224 466.016 725.48 464.384 725.48ZM464.384 721.64C465.344 721.64 466.304 721.48 467.264 721.16C468.224 720.808 469.072 720.28 469.808 719.576C470.544 718.84 471.136 717.896 471.584 716.744C472.064 715.592 472.304 714.184 472.304 712.52V711.56C472.304 710.024 472.064 708.712 471.584 707.624C471.136 706.536 470.544 705.64 469.808 704.936C469.072 704.232 468.224 703.72 467.264 703.4C466.304 703.08 465.344 702.92 464.384 702.92C463.424 702.92 462.464 703.08 461.504 703.4C460.544 703.72 459.696 704.232 458.96 704.936C458.224 705.64 457.616 706.536 457.136 707.624C456.688 708.712 456.464 710.024 456.464 711.56V712.52C456.464 714.184 456.688 715.592 457.136 716.744C457.616 717.896 458.224 718.84 458.96 719.576C459.696 720.28 460.544 720.808 461.504 721.16C462.464 721.48 463.424 721.64 464.384 721.64ZM491.966 725.48C490.334 725.48 488.814 725.224 487.406 724.712C485.998 724.168 484.782 723.368 483.758 722.312C482.734 721.224 481.918 719.864 481.31 718.232C480.734 716.6 480.446 714.696 480.446 712.52V711.56C480.446 709.48 480.766 707.672 481.406 706.136C482.046 704.568 482.894 703.272 483.95 702.248C485.006 701.192 486.222 700.408 487.598 699.896C489.006 699.352 490.462 699.08 491.966 699.08C493.47 699.08 494.814 699.288 495.998 699.704C497.214 700.12 498.254 700.696 499.118 701.432C500.014 702.168 500.734 703.032 501.278 704.024C501.854 705.016 502.27 706.088 502.526 707.24H498.206C497.95 706.632 497.646 706.072 497.294 705.56C496.974 705.016 496.558 704.552 496.046 704.168C495.566 703.784 494.99 703.48 494.318 703.256C493.678 703.032 492.894 702.92 491.966 702.92C491.038 702.92 490.142 703.096 489.278 703.448C488.414 703.768 487.646 704.28 486.974 704.984C486.302 705.656 485.758 706.536 485.342 707.624C484.958 708.712 484.766 710.024 484.766 711.56V712.52C484.766 714.152 484.958 715.56 485.342 716.744C485.758 717.896 486.302 718.84 486.974 719.576C487.646 720.28 488.414 720.808 489.278 721.16C490.142 721.48 491.038 721.64 491.966 721.64C493.534 721.64 494.846 721.256 495.902 720.488C496.99 719.72 497.758 718.664 498.206 717.32H502.526C502.238 718.568 501.774 719.704 501.134 720.728C500.494 721.72 499.71 722.568 498.782 723.272C497.886 723.976 496.862 724.52 495.71 724.904C494.558 725.288 493.31 725.48 491.966 725.48ZM513.61 725V703.304H504.922V699.56H526.522V703.304H517.834V725H513.61ZM530.853 725V699.56H535.077V709.16H540.213C541.813 709.16 543.189 709.352 544.341 709.736C545.525 710.088 546.501 710.6 547.269 711.272C548.037 711.944 548.613 712.776 548.997 713.768C549.381 714.76 549.573 715.88 549.573 717.128C549.573 718.344 549.381 719.448 548.997 720.44C548.613 721.4 548.037 722.216 547.269 722.888C546.501 723.56 545.525 724.088 544.341 724.472C543.189 724.824 541.813 725 540.213 725H530.853ZM535.077 721.256H539.973C541.957 721.256 543.349 720.904 544.149 720.2C544.949 719.496 545.349 718.456 545.349 717.08C545.349 715.704 544.949 714.664 544.149 713.96C543.349 713.256 541.957 712.904 539.973 712.904H535.077V721.256ZM553.509 725V699.56H557.733V725H553.509ZM564.92 725V699.56H569.432L578.504 715.4L587.576 699.56H591.8V725H587.576V706.52L580.04 719.48H576.68L569.144 706.52V725H564.92ZM598.987 725V699.56H603.211V718.76L616.363 699.56H620.587V725H616.363V705.8L603.211 725H598.987ZM649.164 725.48C647.532 725.48 646.012 725.224 644.604 724.712C643.196 724.168 641.98 723.368 640.956 722.312C639.932 721.224 639.116 719.864 638.508 718.232C637.932 716.6 637.644 714.696 637.644 712.52V711.56C637.644 709.48 637.964 707.672 638.604 706.136C639.244 704.568 640.092 703.272 641.148 702.248C642.204 701.192 643.42 700.408 644.796 699.896C646.204 699.352 647.66 699.08 649.164 699.08C650.668 699.08 652.012 699.288 653.196 699.704C654.412 700.12 655.452 700.696 656.316 701.432C657.212 702.168 657.932 703.032 658.476 704.024C659.052 705.016 659.468 706.088 659.724 707.24H655.404C655.148 706.632 654.844 706.072 654.492 705.56C654.172 705.016 653.756 704.552 653.244 704.168C652.764 703.784 652.188 703.48 651.516 703.256C650.876 703.032 650.092 702.92 649.164 702.92C648.236 702.92 647.34 703.096 646.476 703.448C645.612 703.768 644.844 704.28 644.172 704.984C643.5 705.656 642.956 706.536 642.54 707.624C642.156 708.712 641.964 710.024 641.964 711.56V712.52C641.964 714.152 642.156 715.56 642.54 716.744C642.956 717.896 643.5 718.84 644.172 719.576C644.844 720.28 645.612 720.808 646.476 721.16C647.34 721.48 648.236 721.64 649.164 721.64C650.732 721.64 652.044 721.256 653.1 720.488C654.188 719.72 654.956 718.664 655.404 717.32H659.724C659.436 718.568 658.972 719.704 658.332 720.728C657.692 721.72 656.908 722.568 655.98 723.272C655.084 723.976 654.06 724.52 652.908 724.904C651.756 725.288 650.508 725.48 649.164 725.48ZM663.8 725.48C663.672 725.48 663.544 725.48 663.416 725.48C663.32 725.48 663.208 725.464 663.08 725.432C662.952 725.432 662.824 725.416 662.696 725.384C662.6 725.384 662.488 725.368 662.36 725.336V721.112C662.424 721.144 662.52 721.16 662.648 721.16C662.776 721.16 662.92 721.16 663.08 721.16C663.816 721.16 664.44 720.936 664.952 720.488C665.464 720.04 665.88 719.256 666.2 718.136C666.52 717.016 666.76 715.496 666.92 713.576C667.08 711.656 667.16 709.224 667.16 706.28V699.56H685.4V725H681.176V703.304H671.384V707.24C671.384 710.792 671.224 713.736 670.904 716.072C670.584 718.408 670.104 720.28 669.464 721.688C668.856 723.064 668.072 724.04 667.112 724.616C666.152 725.192 665.048 725.48 663.8 725.48ZM703.158 725.48C701.526 725.48 699.974 725.224 698.502 724.712C697.03 724.168 695.734 723.368 694.614 722.312C693.494 721.224 692.598 719.864 691.926 718.232C691.254 716.6 690.918 714.696 690.918 712.52V711.56C690.918 709.48 691.254 707.672 691.926 706.136C692.598 704.568 693.494 703.272 694.614 702.248C695.734 701.192 697.03 700.408 698.502 699.896C699.974 699.352 701.526 699.08 703.158 699.08C704.79 699.08 706.342 699.352 707.814 699.896C709.286 700.408 710.582 701.192 711.702 702.248C712.822 703.272 713.718 704.568 714.39 706.136C715.062 707.672 715.398 709.48 715.398 711.56V712.52C715.398 714.696 715.062 716.6 714.39 718.232C713.718 719.864 712.822 721.224 711.702 722.312C710.582 723.368 709.286 724.168 707.814 724.712C706.342 725.224 704.79 725.48 703.158 725.48ZM703.158 721.64C704.118 721.64 705.078 721.48 706.038 721.16C706.998 720.808 707.846 720.28 708.582 719.576C709.318 718.84 709.91 717.896 710.358 716.744C710.838 715.592 711.078 714.184 711.078 712.52V711.56C711.078 710.024 710.838 708.712 710.358 707.624C709.91 706.536 709.318 705.64 708.582 704.936C707.846 704.232 706.998 703.72 706.038 703.4C705.078 703.08 704.118 702.92 703.158 702.92C702.198 702.92 701.238 703.08 700.278 703.4C699.318 703.72 698.47 704.232 697.734 704.936C696.998 705.64 696.39 706.536 695.91 707.624C695.462 708.712 695.238 710.024 695.238 711.56V712.52C695.238 714.184 695.462 715.592 695.91 716.744C696.39 717.896 696.998 718.84 697.734 719.576C698.47 720.28 699.318 720.808 700.278 721.16C701.238 721.48 702.198 721.64 703.158 721.64ZM720.899 725V699.56H731.939C733.507 699.56 734.867 699.736 736.019 700.088C737.171 700.408 738.115 700.888 738.851 701.528C739.587 702.136 740.131 702.872 740.483 703.736C740.867 704.568 741.059 705.496 741.059 706.52C741.059 707.096 740.963 707.656 740.771 708.2C740.579 708.744 740.307 709.256 739.955 709.736C739.635 710.184 739.235 710.6 738.755 710.984C738.307 711.336 737.795 711.608 737.219 711.8C738.787 712.184 739.971 712.92 740.771 714.008C741.603 715.064 742.019 716.312 742.019 717.752C742.019 719.96 741.283 721.72 739.811 723.032C738.339 724.344 736.035 725 732.899 725H720.899ZM725.123 721.256H732.899C734.723 721.256 735.987 720.936 736.691 720.296C737.427 719.656 737.795 718.744 737.795 717.56C737.795 716.344 737.427 715.416 736.691 714.776C735.987 714.104 734.723 713.768 732.899 713.768H725.123V721.256ZM725.123 710.312H731.939C732.867 710.312 733.635 710.232 734.243 710.072C734.883 709.912 735.395 709.672 735.779 709.352C736.163 709.032 736.435 708.664 736.595 708.248C736.755 707.8 736.835 707.288 736.835 706.712C736.835 706.168 736.755 705.688 736.595 705.272C736.435 704.856 736.163 704.504 735.779 704.216C735.395 703.928 734.883 703.704 734.243 703.544C733.635 703.384 732.867 703.304 731.939 703.304H725.123V710.312ZM754.808 725.48C753.432 725.48 752.2 725.288 751.112 724.904C750.024 724.488 749.112 723.928 748.376 723.224C747.64 722.52 747.08 721.688 746.696 720.728C746.312 719.768 746.12 718.712 746.12 717.56C746.12 716.312 746.312 715.24 746.696 714.344C747.08 713.416 747.624 712.664 748.328 712.088C749.064 711.512 749.976 711.096 751.064 710.84C752.152 710.552 753.384 710.408 754.76 710.408H763.016V708.68C763.016 707.592 762.888 706.68 762.632 705.944C762.408 705.208 762.04 704.616 761.528 704.168C761.048 703.72 760.44 703.4 759.704 703.208C758.968 703.016 758.12 702.92 757.16 702.92C756.264 702.92 755.48 703.016 754.808 703.208C754.168 703.4 753.624 703.656 753.176 703.976C752.76 704.264 752.44 704.616 752.216 705.032C751.992 705.416 751.848 705.832 751.784 706.28H747.56C747.624 705.256 747.896 704.312 748.376 703.448C748.888 702.552 749.56 701.784 750.392 701.144C751.256 700.504 752.28 700.008 753.464 699.656C754.648 699.272 755.96 699.08 757.4 699.08C758.904 699.08 760.264 699.256 761.48 699.608C762.696 699.928 763.72 700.456 764.552 701.192C765.416 701.928 766.072 702.872 766.52 704.024C767 705.176 767.24 706.568 767.24 708.2V718.52C767.24 719.864 767.24 721.048 767.24 722.072C767.272 723.064 767.352 724.04 767.48 725H763.784C763.688 724.264 763.624 723.576 763.592 722.936C763.56 722.264 763.544 721.512 763.544 720.68C763.224 721.352 762.776 721.976 762.2 722.552C761.656 723.128 761.016 723.64 760.28 724.088C759.544 724.504 758.712 724.84 757.784 725.096C756.856 725.352 755.864 725.48 754.808 725.48ZM755.72 721.64C756.712 721.64 757.64 721.512 758.504 721.256C759.4 720.968 760.184 720.568 760.856 720.056C761.528 719.512 762.056 718.856 762.44 718.088C762.824 717.288 763.016 716.392 763.016 715.4V713.672H755.48C753.912 713.672 752.68 713.992 751.784 714.632C750.888 715.24 750.44 716.216 750.44 717.56C750.44 718.744 750.856 719.72 751.688 720.488C752.552 721.256 753.896 721.64 755.72 721.64ZM774.221 725V699.56H778.733L787.805 715.4L796.877 699.56H801.101V725H796.877V706.52L789.341 719.48H785.981L778.445 706.52V725H774.221ZM808.288 725V699.56H812.512V718.76L825.664 699.56H829.888V725H825.664V705.8L812.512 725H808.288Z" fill="white"/>
<defs>
<filter id="filter0_d_303_433" x="0" y="184" width="639" height="260" filterUnits="userSpaceOnUse" color-interpolation-filters="sRGB">
<feFlood flood-opacity="0" result="BackgroundImageFix"/>
<feColorMatrix in="SourceAlpha" type="matrix" values="0 0 0 0 0 0 0 0 0 0 0 0 0 0 0 0 0 0 127 0" result="hardAlpha"/>
<feOffset/>
<feGaussianBlur stdDeviation="40"/>
<feComposite in2="hardAlpha" operator="out"/>
<feColorMatrix type="matrix" values="0 0 0 0 0.2 0 0 0 0 0.2 0 0 0 0 0.2 0 0 0 0.25 0"/>
<feBlend mode="normal" in2="BackgroundImageFix" result="effect1_dropShadow_303_433"/>
<feBlend mode="normal" in="SourceGraphic" in2="effect1_dropShadow_303_433" result="shape"/>
</filter>
</defs>
</svg>
