<svg width="50" height="50" viewBox="0 0 50 50" fill="none" xmlns="http://www.w3.org/2000/svg">
<path fill-rule="evenodd" clip-rule="evenodd" d="M25 10C27.2092 10 29 8.20914 29 6C29 3.79086 27.2092 2 25 2C22.7909 2 21 3.79086 21 6C21 8.20914 22.7909 10 25 10ZM27 14C27 13.3068 26.6411 12.6631 26.0515 12.2987C25.4619 11.9343 24.7256 11.9012 24.1056 12.2111L8.1056 20.2111C7.53058 20.4987 7.12883 21.045 7.02585 21.6796C6.92287 22.3142 7.13122 22.9596 7.58581 23.4142L15.5858 31.4142C16.3669 32.1953 17.6332 32.1953 18.4142 31.4142C19.1953 30.6332 19.1953 29.3668 18.4142 28.5858L12.3764 22.5479L23 17.2361V46C23 46.6932 23.3589 47.3369 23.9486 47.7013C24.5382 48.0657 25.2745 48.0988 25.8945 47.7889L41.8945 39.7889C42.4695 39.5013 42.8712 38.9549 42.9742 38.3204C43.0772 37.6858 42.8688 37.0404 42.4143 36.5858L34.4143 28.5858C33.6332 27.8047 32.3669 27.8047 31.5858 28.5858C30.8048 29.3668 30.8048 30.6332 31.5858 31.4142L37.6237 37.4521L27 42.7639V14Z" fill="#FC5130"/>
</svg>
