<?xml version="1.0" standalone="no"?>
<!DOCTYPE svg PUBLIC "-//W3C//DTD SVG 20010904//EN"
 "http://www.w3.org/TR/2001/REC-SVG-20010904/DTD/svg10.dtd">
<svg version="1.0" xmlns="http://www.w3.org/2000/svg"
 width="700.000000pt" height="700.000000pt" viewBox="0 0 700.000000 700.000000"
 preserveAspectRatio="xMidYMid meet">
<metadata>
Created by potrace 1.14, written by Peter Selinger 2001-2017
</metadata>
<g transform="translate(0.000000,700.000000) scale(0.100000,-0.100000)"
fill="#000000" stroke="none">
<path d="M3371 6704 c-125 -29 -263 -124 -333 -229 -37 -54 -77 -149 -86 -199
-12 -68 -8 -208 7 -261 51 -182 198 -334 377 -390 63 -20 214 -27 279 -13 344
74 539 456 396 773 -92 203 -272 324 -491 330 -52 1 -119 -4 -149 -11z"/>
<path d="M3435 5314 c-11 -3 -543 -266 -1183 -586 -1072 -535 -1165 -584
-1202 -626 -75 -85 -90 -216 -36 -313 16 -27 257 -275 623 -640 587 -585 599
-596 656 -614 148 -45 304 33 350 176 21 65 21 113 0 180 -15 51 -42 80 -462
501 -245 246 -443 450 -440 452 7 7 1466 736 1473 736 3 0 7 -921 8 -2047 l3
-2048 27 -51 c51 -98 135 -148 249 -148 l75 -1 1166 583 c1067 532 1170 586
1206 627 76 87 92 219 38 316 -38 66 -1200 1223 -1250 1243 -64 26 -136 30
-201 12 -74 -22 -153 -97 -178 -169 -22 -66 -17 -170 12 -222 13 -22 218 -236
457 -475 239 -239 434 -438 434 -441 0 -6 -1461 -739 -1473 -739 -4 0 -7 913
-7 2029 0 1867 -1 2033 -17 2080 -21 65 -79 132 -139 160 -45 21 -149 35 -189
25z"/>
</g>
</svg>
